G75*
G70*
%OFA0B0*%
%FSLAX24Y24*%
%IPPOS*%
%LPD*%
%AMOC8*
5,1,8,0,0,1.08239X$1,22.5*
%
%ADD10C,0.0000*%
%ADD11OC8,0.0640*%
%ADD12C,0.0640*%
%ADD13C,0.0600*%
%ADD14C,0.1300*%
D10*
X003055Y000150D02*
X003055Y010226D01*
X020925Y010226D01*
X020925Y000150D01*
X003055Y000150D01*
X003565Y002870D02*
X003567Y002920D01*
X003573Y002970D01*
X003583Y003019D01*
X003597Y003067D01*
X003614Y003114D01*
X003635Y003159D01*
X003660Y003203D01*
X003688Y003244D01*
X003720Y003283D01*
X003754Y003320D01*
X003791Y003354D01*
X003831Y003384D01*
X003873Y003411D01*
X003917Y003435D01*
X003963Y003456D01*
X004010Y003472D01*
X004058Y003485D01*
X004108Y003494D01*
X004157Y003499D01*
X004208Y003500D01*
X004258Y003497D01*
X004307Y003490D01*
X004356Y003479D01*
X004404Y003464D01*
X004450Y003446D01*
X004495Y003424D01*
X004538Y003398D01*
X004579Y003369D01*
X004618Y003337D01*
X004654Y003302D01*
X004686Y003264D01*
X004716Y003224D01*
X004743Y003181D01*
X004766Y003137D01*
X004785Y003091D01*
X004801Y003043D01*
X004813Y002994D01*
X004821Y002945D01*
X004825Y002895D01*
X004825Y002845D01*
X004821Y002795D01*
X004813Y002746D01*
X004801Y002697D01*
X004785Y002649D01*
X004766Y002603D01*
X004743Y002559D01*
X004716Y002516D01*
X004686Y002476D01*
X004654Y002438D01*
X004618Y002403D01*
X004579Y002371D01*
X004538Y002342D01*
X004495Y002316D01*
X004450Y002294D01*
X004404Y002276D01*
X004356Y002261D01*
X004307Y002250D01*
X004258Y002243D01*
X004208Y002240D01*
X004157Y002241D01*
X004108Y002246D01*
X004058Y002255D01*
X004010Y002268D01*
X003963Y002284D01*
X003917Y002305D01*
X003873Y002329D01*
X003831Y002356D01*
X003791Y002386D01*
X003754Y002420D01*
X003720Y002457D01*
X003688Y002496D01*
X003660Y002537D01*
X003635Y002581D01*
X003614Y002626D01*
X003597Y002673D01*
X003583Y002721D01*
X003573Y002770D01*
X003567Y002820D01*
X003565Y002870D01*
X003565Y005870D02*
X003567Y005920D01*
X003573Y005970D01*
X003583Y006019D01*
X003597Y006067D01*
X003614Y006114D01*
X003635Y006159D01*
X003660Y006203D01*
X003688Y006244D01*
X003720Y006283D01*
X003754Y006320D01*
X003791Y006354D01*
X003831Y006384D01*
X003873Y006411D01*
X003917Y006435D01*
X003963Y006456D01*
X004010Y006472D01*
X004058Y006485D01*
X004108Y006494D01*
X004157Y006499D01*
X004208Y006500D01*
X004258Y006497D01*
X004307Y006490D01*
X004356Y006479D01*
X004404Y006464D01*
X004450Y006446D01*
X004495Y006424D01*
X004538Y006398D01*
X004579Y006369D01*
X004618Y006337D01*
X004654Y006302D01*
X004686Y006264D01*
X004716Y006224D01*
X004743Y006181D01*
X004766Y006137D01*
X004785Y006091D01*
X004801Y006043D01*
X004813Y005994D01*
X004821Y005945D01*
X004825Y005895D01*
X004825Y005845D01*
X004821Y005795D01*
X004813Y005746D01*
X004801Y005697D01*
X004785Y005649D01*
X004766Y005603D01*
X004743Y005559D01*
X004716Y005516D01*
X004686Y005476D01*
X004654Y005438D01*
X004618Y005403D01*
X004579Y005371D01*
X004538Y005342D01*
X004495Y005316D01*
X004450Y005294D01*
X004404Y005276D01*
X004356Y005261D01*
X004307Y005250D01*
X004258Y005243D01*
X004208Y005240D01*
X004157Y005241D01*
X004108Y005246D01*
X004058Y005255D01*
X004010Y005268D01*
X003963Y005284D01*
X003917Y005305D01*
X003873Y005329D01*
X003831Y005356D01*
X003791Y005386D01*
X003754Y005420D01*
X003720Y005457D01*
X003688Y005496D01*
X003660Y005537D01*
X003635Y005581D01*
X003614Y005626D01*
X003597Y005673D01*
X003583Y005721D01*
X003573Y005770D01*
X003567Y005820D01*
X003565Y005870D01*
D11*
X003935Y008030D03*
X004935Y008030D03*
X005935Y008030D03*
X006935Y008030D03*
X007935Y008030D03*
X008935Y008030D03*
X009935Y008030D03*
X010935Y008030D03*
X011935Y008030D03*
X012935Y008030D03*
X013935Y008030D03*
X014935Y008030D03*
X015935Y008030D03*
X015935Y009030D03*
X014935Y009030D03*
X013935Y009030D03*
X012935Y009030D03*
X011935Y009030D03*
X010935Y009030D03*
X009935Y009030D03*
X008935Y009030D03*
X007935Y009030D03*
X006935Y009030D03*
X005935Y009030D03*
X004935Y009030D03*
X003935Y009030D03*
D12*
X003555Y001450D02*
X003555Y000850D01*
X004555Y000850D02*
X004555Y001450D01*
X005555Y001450D02*
X005555Y000850D01*
X006555Y000850D02*
X006555Y001450D01*
X016555Y001450D02*
X016555Y000850D01*
X017555Y000850D02*
X017555Y001450D01*
X018555Y001450D02*
X018555Y000850D01*
X019555Y000850D02*
X019555Y001450D01*
X019675Y004490D02*
X020275Y004490D01*
X020275Y005490D02*
X019675Y005490D01*
X019675Y006490D02*
X020275Y006490D01*
D13*
X007695Y004620D03*
X006695Y004120D03*
X007695Y003620D03*
X006695Y005120D03*
D14*
X004195Y005870D03*
X004195Y002870D03*
M02*
