G75*
G70*
%OFA0B0*%
%FSLAX24Y24*%
%IPPOS*%
%LPD*%
%AMOC8*
5,1,8,0,0,1.08239X$1,22.5*
%
%ADD10C,0.0000*%
%ADD11OC8,0.0600*%
%ADD12C,0.0600*%
%ADD13C,0.0560*%
%ADD14C,0.0100*%
%ADD15OC8,0.0356*%
%ADD16C,0.0060*%
%ADD17C,0.0070*%
%ADD18C,0.0240*%
D10*
X003055Y000150D02*
X003055Y010226D01*
X020925Y010226D01*
X020925Y000150D01*
X003055Y000150D01*
X003565Y002870D02*
X003567Y002920D01*
X003573Y002970D01*
X003583Y003019D01*
X003597Y003067D01*
X003614Y003114D01*
X003635Y003159D01*
X003660Y003203D01*
X003688Y003244D01*
X003720Y003283D01*
X003754Y003320D01*
X003791Y003354D01*
X003831Y003384D01*
X003873Y003411D01*
X003917Y003435D01*
X003963Y003456D01*
X004010Y003472D01*
X004058Y003485D01*
X004108Y003494D01*
X004157Y003499D01*
X004208Y003500D01*
X004258Y003497D01*
X004307Y003490D01*
X004356Y003479D01*
X004404Y003464D01*
X004450Y003446D01*
X004495Y003424D01*
X004538Y003398D01*
X004579Y003369D01*
X004618Y003337D01*
X004654Y003302D01*
X004686Y003264D01*
X004716Y003224D01*
X004743Y003181D01*
X004766Y003137D01*
X004785Y003091D01*
X004801Y003043D01*
X004813Y002994D01*
X004821Y002945D01*
X004825Y002895D01*
X004825Y002845D01*
X004821Y002795D01*
X004813Y002746D01*
X004801Y002697D01*
X004785Y002649D01*
X004766Y002603D01*
X004743Y002559D01*
X004716Y002516D01*
X004686Y002476D01*
X004654Y002438D01*
X004618Y002403D01*
X004579Y002371D01*
X004538Y002342D01*
X004495Y002316D01*
X004450Y002294D01*
X004404Y002276D01*
X004356Y002261D01*
X004307Y002250D01*
X004258Y002243D01*
X004208Y002240D01*
X004157Y002241D01*
X004108Y002246D01*
X004058Y002255D01*
X004010Y002268D01*
X003963Y002284D01*
X003917Y002305D01*
X003873Y002329D01*
X003831Y002356D01*
X003791Y002386D01*
X003754Y002420D01*
X003720Y002457D01*
X003688Y002496D01*
X003660Y002537D01*
X003635Y002581D01*
X003614Y002626D01*
X003597Y002673D01*
X003583Y002721D01*
X003573Y002770D01*
X003567Y002820D01*
X003565Y002870D01*
X003565Y005870D02*
X003567Y005920D01*
X003573Y005970D01*
X003583Y006019D01*
X003597Y006067D01*
X003614Y006114D01*
X003635Y006159D01*
X003660Y006203D01*
X003688Y006244D01*
X003720Y006283D01*
X003754Y006320D01*
X003791Y006354D01*
X003831Y006384D01*
X003873Y006411D01*
X003917Y006435D01*
X003963Y006456D01*
X004010Y006472D01*
X004058Y006485D01*
X004108Y006494D01*
X004157Y006499D01*
X004208Y006500D01*
X004258Y006497D01*
X004307Y006490D01*
X004356Y006479D01*
X004404Y006464D01*
X004450Y006446D01*
X004495Y006424D01*
X004538Y006398D01*
X004579Y006369D01*
X004618Y006337D01*
X004654Y006302D01*
X004686Y006264D01*
X004716Y006224D01*
X004743Y006181D01*
X004766Y006137D01*
X004785Y006091D01*
X004801Y006043D01*
X004813Y005994D01*
X004821Y005945D01*
X004825Y005895D01*
X004825Y005845D01*
X004821Y005795D01*
X004813Y005746D01*
X004801Y005697D01*
X004785Y005649D01*
X004766Y005603D01*
X004743Y005559D01*
X004716Y005516D01*
X004686Y005476D01*
X004654Y005438D01*
X004618Y005403D01*
X004579Y005371D01*
X004538Y005342D01*
X004495Y005316D01*
X004450Y005294D01*
X004404Y005276D01*
X004356Y005261D01*
X004307Y005250D01*
X004258Y005243D01*
X004208Y005240D01*
X004157Y005241D01*
X004108Y005246D01*
X004058Y005255D01*
X004010Y005268D01*
X003963Y005284D01*
X003917Y005305D01*
X003873Y005329D01*
X003831Y005356D01*
X003791Y005386D01*
X003754Y005420D01*
X003720Y005457D01*
X003688Y005496D01*
X003660Y005537D01*
X003635Y005581D01*
X003614Y005626D01*
X003597Y005673D01*
X003583Y005721D01*
X003573Y005770D01*
X003567Y005820D01*
X003565Y005870D01*
D11*
X003935Y008030D03*
X004935Y008030D03*
X005935Y008030D03*
X006935Y008030D03*
X007935Y008030D03*
X008935Y008030D03*
X009935Y008030D03*
X010935Y008030D03*
X011935Y008030D03*
X012935Y008030D03*
X013935Y008030D03*
X014935Y008030D03*
X015935Y008030D03*
X015935Y009030D03*
X014935Y009030D03*
X013935Y009030D03*
X012935Y009030D03*
X011935Y009030D03*
X010935Y009030D03*
X009935Y009030D03*
X008935Y009030D03*
X007935Y009030D03*
X006935Y009030D03*
X005935Y009030D03*
X004935Y009030D03*
X003935Y009030D03*
D12*
X003555Y001450D02*
X003555Y000850D01*
X004555Y000850D02*
X004555Y001450D01*
X005555Y001450D02*
X005555Y000850D01*
X006555Y000850D02*
X006555Y001450D01*
X016555Y001450D02*
X016555Y000850D01*
X017555Y000850D02*
X017555Y001450D01*
X018555Y001450D02*
X018555Y000850D01*
X019555Y000850D02*
X019555Y001450D01*
X019675Y004490D02*
X020275Y004490D01*
X020275Y005490D02*
X019675Y005490D01*
X019675Y006490D02*
X020275Y006490D01*
D13*
X007695Y004620D03*
X006695Y004120D03*
X007695Y003620D03*
X006695Y005120D03*
D14*
X007139Y004910D02*
X007292Y004910D01*
X007280Y004898D01*
X007205Y004717D01*
X007205Y004523D01*
X007280Y004342D01*
X007418Y004205D01*
X007598Y004130D01*
X007793Y004130D01*
X007973Y004205D01*
X008111Y004342D01*
X008185Y004523D01*
X008185Y004717D01*
X008111Y004898D01*
X008098Y004910D01*
X008356Y004910D01*
X008575Y004691D01*
X008575Y003002D01*
X008612Y002914D01*
X008679Y002847D01*
X009039Y002487D01*
X009127Y002450D01*
X013726Y002450D01*
X013874Y002302D01*
X014196Y002302D01*
X014423Y002529D01*
X014423Y002851D01*
X014196Y003078D01*
X013874Y003078D01*
X013726Y002930D01*
X009275Y002930D01*
X009055Y003149D01*
X009055Y004838D01*
X009019Y004926D01*
X008659Y005286D01*
X008591Y005353D01*
X008503Y005390D01*
X007114Y005390D01*
X007111Y005398D01*
X006973Y005535D01*
X006793Y005610D01*
X006598Y005610D01*
X006418Y005535D01*
X006280Y005398D01*
X006205Y005217D01*
X006205Y005023D01*
X006280Y004842D01*
X006418Y004705D01*
X006598Y004630D01*
X006793Y004630D01*
X006973Y004705D01*
X007111Y004842D01*
X007139Y004910D01*
X007128Y004886D02*
X007275Y004886D01*
X007234Y004787D02*
X007055Y004787D01*
X006934Y004689D02*
X007205Y004689D01*
X007205Y004590D02*
X003265Y004590D01*
X003265Y004492D02*
X006477Y004492D01*
X006470Y004488D02*
X006415Y004448D01*
X006367Y004400D01*
X006327Y004345D01*
X006297Y004285D01*
X006276Y004221D01*
X006266Y004159D01*
X006657Y004159D01*
X006657Y004549D01*
X006594Y004539D01*
X006530Y004518D01*
X006470Y004488D01*
X006362Y004393D02*
X003265Y004393D01*
X003265Y004295D02*
X006301Y004295D01*
X006272Y004196D02*
X003265Y004196D01*
X003265Y004098D02*
X006657Y004098D01*
X006657Y004081D02*
X006266Y004081D01*
X006276Y004019D01*
X006297Y003955D01*
X006327Y003895D01*
X006367Y003840D01*
X006415Y003792D01*
X006470Y003752D01*
X006530Y003722D01*
X006594Y003701D01*
X006657Y003691D01*
X006657Y004081D01*
X006734Y004081D01*
X006734Y004159D01*
X006657Y004159D01*
X006657Y004081D01*
X006734Y004081D02*
X006734Y003691D01*
X006796Y003701D01*
X006860Y003722D01*
X006920Y003752D01*
X006975Y003792D01*
X007023Y003840D01*
X007063Y003895D01*
X007094Y003955D01*
X007115Y004019D01*
X007124Y004081D01*
X006734Y004081D01*
X006734Y004098D02*
X007567Y004098D01*
X007598Y004110D02*
X007418Y004035D01*
X007280Y003898D01*
X007205Y003717D01*
X007205Y003523D01*
X007280Y003342D01*
X007418Y003205D01*
X007598Y003130D01*
X007793Y003130D01*
X007973Y003205D01*
X008111Y003342D01*
X008185Y003523D01*
X008185Y003717D01*
X008111Y003898D01*
X007973Y004035D01*
X007793Y004110D01*
X007598Y004110D01*
X007438Y004196D02*
X007118Y004196D01*
X007115Y004221D02*
X007094Y004285D01*
X007063Y004345D01*
X007023Y004400D01*
X006975Y004448D01*
X006920Y004488D01*
X006860Y004518D01*
X006796Y004539D01*
X006734Y004549D01*
X006734Y004159D01*
X007124Y004159D01*
X007115Y004221D01*
X007089Y004295D02*
X007328Y004295D01*
X007259Y004393D02*
X007028Y004393D01*
X006913Y004492D02*
X007218Y004492D01*
X006734Y004492D02*
X006657Y004492D01*
X006657Y004393D02*
X006734Y004393D01*
X006734Y004295D02*
X006657Y004295D01*
X006657Y004196D02*
X006734Y004196D01*
X006734Y003999D02*
X006657Y003999D01*
X006657Y003901D02*
X006734Y003901D01*
X006734Y003802D02*
X006657Y003802D01*
X006657Y003704D02*
X006734Y003704D01*
X006805Y003704D02*
X007205Y003704D01*
X007205Y003605D02*
X004615Y003605D01*
X004671Y003582D02*
X004362Y003710D01*
X004028Y003710D01*
X003719Y003582D01*
X003483Y003346D01*
X003355Y003037D01*
X003355Y002703D01*
X003483Y002394D01*
X003719Y002158D01*
X004028Y002030D01*
X004362Y002030D01*
X004671Y002158D01*
X004907Y002394D01*
X005035Y002703D01*
X005035Y003037D01*
X004907Y003346D01*
X004671Y003582D01*
X004746Y003507D02*
X007212Y003507D01*
X007253Y003408D02*
X004845Y003408D01*
X004922Y003310D02*
X007313Y003310D01*
X007411Y003211D02*
X004963Y003211D01*
X005004Y003113D02*
X008575Y003113D01*
X008575Y003211D02*
X007979Y003211D01*
X008078Y003310D02*
X008575Y003310D01*
X008575Y003408D02*
X008138Y003408D01*
X008178Y003507D02*
X008575Y003507D01*
X008575Y003605D02*
X008185Y003605D01*
X008185Y003704D02*
X008575Y003704D01*
X008575Y003802D02*
X008150Y003802D01*
X008108Y003901D02*
X008575Y003901D01*
X008575Y003999D02*
X008009Y003999D01*
X007823Y004098D02*
X008575Y004098D01*
X008575Y004196D02*
X007952Y004196D01*
X008063Y004295D02*
X008575Y004295D01*
X008575Y004393D02*
X008131Y004393D01*
X008172Y004492D02*
X008575Y004492D01*
X008575Y004590D02*
X008185Y004590D01*
X008185Y004689D02*
X008575Y004689D01*
X008479Y004787D02*
X008156Y004787D01*
X008116Y004886D02*
X008380Y004886D01*
X008764Y005181D02*
X013545Y005181D01*
X013643Y005083D02*
X008862Y005083D01*
X008961Y004984D02*
X013742Y004984D01*
X013839Y004887D02*
X013927Y004850D01*
X015706Y004850D01*
X015854Y004702D01*
X016176Y004702D01*
X016315Y004841D01*
X016315Y001903D01*
X016266Y001882D01*
X016123Y001739D01*
X016045Y001551D01*
X016045Y000749D01*
X016123Y000561D01*
X016266Y000418D01*
X016405Y000360D01*
X006705Y000360D01*
X006844Y000418D01*
X006987Y000561D01*
X007065Y000749D01*
X007065Y001551D01*
X006987Y001739D01*
X006844Y001882D01*
X006657Y001960D01*
X006454Y001960D01*
X006266Y001882D01*
X006123Y001739D01*
X006045Y001551D01*
X006045Y000749D01*
X006123Y000561D01*
X006266Y000418D01*
X006405Y000360D01*
X003705Y000360D01*
X003844Y000418D01*
X003987Y000561D01*
X004065Y000749D01*
X004065Y001551D01*
X003987Y001739D01*
X003844Y001882D01*
X003657Y001960D01*
X003454Y001960D01*
X003266Y001882D01*
X003265Y001881D01*
X003265Y010016D01*
X020715Y010016D01*
X020715Y006760D01*
X020707Y006779D01*
X020564Y006922D01*
X020377Y007000D01*
X019574Y007000D01*
X019553Y006991D01*
X019259Y007286D01*
X019191Y007353D01*
X017885Y008659D01*
X017885Y008716D01*
X017835Y008837D01*
X017742Y008930D01*
X017621Y008980D01*
X017565Y008980D01*
X016691Y009853D01*
X016603Y009890D01*
X005616Y009890D01*
X005604Y009895D01*
X005506Y009895D01*
X005416Y009858D01*
X005099Y009540D01*
X004724Y009540D01*
X004459Y009275D01*
X004411Y009275D01*
X004146Y009540D01*
X003724Y009540D01*
X003425Y009241D01*
X003425Y008819D01*
X003714Y008530D01*
X003425Y008241D01*
X003425Y007819D01*
X003690Y007554D01*
X003690Y007221D01*
X003727Y007131D01*
X003916Y006942D01*
X004006Y006905D01*
X004104Y006905D01*
X004116Y006910D01*
X008007Y006910D01*
X008007Y006609D01*
X008170Y006446D01*
X008192Y006394D01*
X008259Y006327D01*
X008499Y006087D01*
X008587Y006050D01*
X012676Y006050D01*
X013839Y004887D01*
X013842Y004886D02*
X009035Y004886D01*
X009055Y004787D02*
X015769Y004787D01*
X016261Y004787D02*
X016315Y004787D01*
X016315Y004689D02*
X009055Y004689D01*
X009055Y004590D02*
X016315Y004590D01*
X016315Y004492D02*
X009055Y004492D01*
X009055Y004393D02*
X016315Y004393D01*
X016315Y004295D02*
X009055Y004295D01*
X009055Y004196D02*
X016315Y004196D01*
X016315Y004098D02*
X009055Y004098D01*
X009055Y003999D02*
X016315Y003999D01*
X016315Y003901D02*
X014933Y003901D01*
X014916Y003918D02*
X014594Y003918D01*
X014367Y003691D01*
X014367Y003369D01*
X014515Y003221D01*
X014515Y002582D01*
X014552Y002494D01*
X014667Y002379D01*
X014667Y002169D01*
X014894Y001942D01*
X015216Y001942D01*
X015443Y002169D01*
X015443Y002491D01*
X015216Y002718D01*
X015006Y002718D01*
X014995Y002729D01*
X014995Y003221D01*
X015143Y003369D01*
X015143Y003691D01*
X014916Y003918D01*
X015032Y003802D02*
X016315Y003802D01*
X016315Y003704D02*
X015130Y003704D01*
X015143Y003605D02*
X016315Y003605D01*
X016315Y003507D02*
X015143Y003507D01*
X015143Y003408D02*
X016315Y003408D01*
X016315Y003310D02*
X015083Y003310D01*
X014995Y003211D02*
X016315Y003211D01*
X016315Y003113D02*
X014995Y003113D01*
X014995Y003014D02*
X016315Y003014D01*
X016315Y002916D02*
X014995Y002916D01*
X014995Y002817D02*
X016315Y002817D01*
X016315Y002719D02*
X015006Y002719D01*
X015314Y002620D02*
X016315Y002620D01*
X016315Y002522D02*
X015412Y002522D01*
X015443Y002423D02*
X016315Y002423D01*
X016315Y002325D02*
X015443Y002325D01*
X015443Y002226D02*
X016315Y002226D01*
X016315Y002128D02*
X015401Y002128D01*
X015303Y002029D02*
X016315Y002029D01*
X016315Y001931D02*
X006728Y001931D01*
X006894Y001832D02*
X016216Y001832D01*
X016121Y001734D02*
X006990Y001734D01*
X007031Y001635D02*
X016080Y001635D01*
X016045Y001537D02*
X007065Y001537D01*
X007065Y001438D02*
X016045Y001438D01*
X016045Y001340D02*
X007065Y001340D01*
X007065Y001241D02*
X016045Y001241D01*
X016045Y001143D02*
X007065Y001143D01*
X007065Y001044D02*
X016045Y001044D01*
X016045Y000946D02*
X007065Y000946D01*
X007065Y000847D02*
X016045Y000847D01*
X016045Y000749D02*
X007065Y000749D01*
X007024Y000650D02*
X016086Y000650D01*
X016132Y000551D02*
X006978Y000551D01*
X006879Y000453D02*
X016231Y000453D01*
X017055Y001576D02*
X016987Y001739D01*
X016844Y001882D01*
X016795Y001903D01*
X016795Y005910D01*
X018103Y005910D01*
X018191Y005947D01*
X019055Y006811D01*
X019197Y006669D01*
X019165Y006591D01*
X019165Y006389D01*
X019243Y006201D01*
X019386Y006058D01*
X019550Y005990D01*
X019386Y005922D01*
X019243Y005779D01*
X019165Y005591D01*
X019165Y005389D01*
X019243Y005201D01*
X019386Y005058D01*
X019574Y004980D01*
X020377Y004980D01*
X020564Y005058D01*
X020707Y005201D01*
X020715Y005220D01*
X020715Y004588D01*
X020714Y004595D01*
X020692Y004663D01*
X020660Y004726D01*
X020618Y004783D01*
X020568Y004833D01*
X020511Y004875D01*
X020448Y004907D01*
X020380Y004929D01*
X020311Y004940D01*
X020025Y004940D01*
X020025Y004540D01*
X019925Y004540D01*
X019925Y004440D01*
X019227Y004440D01*
X019236Y004385D01*
X019258Y004317D01*
X019290Y004254D01*
X019332Y004197D01*
X019382Y004147D01*
X019439Y004105D01*
X019502Y004073D01*
X019570Y004051D01*
X019640Y004040D01*
X019925Y004040D01*
X019925Y004440D01*
X020025Y004440D01*
X020025Y004040D01*
X020311Y004040D01*
X020380Y004051D01*
X020448Y004073D01*
X020511Y004105D01*
X020568Y004147D01*
X020618Y004197D01*
X020660Y004254D01*
X020692Y004317D01*
X020714Y004385D01*
X020715Y004392D01*
X020715Y000360D01*
X018705Y000360D01*
X018844Y000418D01*
X018987Y000561D01*
X019065Y000749D01*
X019065Y001551D01*
X018987Y001739D01*
X018844Y001882D01*
X018657Y001960D01*
X018454Y001960D01*
X018266Y001882D01*
X018123Y001739D01*
X018055Y001576D01*
X017987Y001739D01*
X017844Y001882D01*
X017657Y001960D01*
X017454Y001960D01*
X017266Y001882D01*
X017123Y001739D01*
X017055Y001576D01*
X017031Y001635D02*
X017080Y001635D01*
X017121Y001734D02*
X016990Y001734D01*
X016894Y001832D02*
X017216Y001832D01*
X017382Y001931D02*
X016795Y001931D01*
X016795Y002029D02*
X020715Y002029D01*
X020715Y001931D02*
X018728Y001931D01*
X018894Y001832D02*
X019315Y001832D01*
X019319Y001835D02*
X019262Y001793D01*
X019212Y001743D01*
X019170Y001686D01*
X019138Y001623D01*
X019116Y001555D01*
X019105Y001485D01*
X019105Y001200D01*
X019505Y001200D01*
X019505Y001100D01*
X019105Y001100D01*
X019105Y000815D01*
X019116Y000745D01*
X019138Y000677D01*
X019170Y000614D01*
X019212Y000557D01*
X019262Y000507D01*
X019319Y000465D01*
X019382Y000433D01*
X019450Y000411D01*
X019505Y000402D01*
X019505Y001100D01*
X019605Y001100D01*
X019605Y000402D01*
X019660Y000411D01*
X019728Y000433D01*
X019791Y000465D01*
X019848Y000507D01*
X019898Y000557D01*
X019940Y000614D01*
X019972Y000677D01*
X019994Y000745D01*
X020005Y000815D01*
X020005Y001100D01*
X019605Y001100D01*
X019605Y001200D01*
X019505Y001200D01*
X019505Y001898D01*
X019450Y001889D01*
X019382Y001867D01*
X019319Y001835D01*
X019205Y001734D02*
X018990Y001734D01*
X019031Y001635D02*
X019144Y001635D01*
X019113Y001537D02*
X019065Y001537D01*
X019065Y001438D02*
X019105Y001438D01*
X019105Y001340D02*
X019065Y001340D01*
X019065Y001241D02*
X019105Y001241D01*
X019065Y001143D02*
X019505Y001143D01*
X019505Y001241D02*
X019605Y001241D01*
X019605Y001200D02*
X019605Y001898D01*
X019660Y001889D01*
X019728Y001867D01*
X019791Y001835D01*
X019848Y001793D01*
X019898Y001743D01*
X019940Y001686D01*
X019972Y001623D01*
X019994Y001555D01*
X020005Y001485D01*
X020005Y001200D01*
X019605Y001200D01*
X019605Y001143D02*
X020715Y001143D01*
X020715Y001241D02*
X020005Y001241D01*
X020005Y001340D02*
X020715Y001340D01*
X020715Y001438D02*
X020005Y001438D01*
X019997Y001537D02*
X020715Y001537D01*
X020715Y001635D02*
X019966Y001635D01*
X019905Y001734D02*
X020715Y001734D01*
X020715Y001832D02*
X019795Y001832D01*
X019605Y001832D02*
X019505Y001832D01*
X019505Y001734D02*
X019605Y001734D01*
X019605Y001635D02*
X019505Y001635D01*
X019505Y001537D02*
X019605Y001537D01*
X019605Y001438D02*
X019505Y001438D01*
X019505Y001340D02*
X019605Y001340D01*
X019605Y001044D02*
X019505Y001044D01*
X019505Y000946D02*
X019605Y000946D01*
X019605Y000847D02*
X019505Y000847D01*
X019505Y000749D02*
X019605Y000749D01*
X019605Y000650D02*
X019505Y000650D01*
X019505Y000551D02*
X019605Y000551D01*
X019605Y000453D02*
X019505Y000453D01*
X019343Y000453D02*
X018879Y000453D01*
X018978Y000551D02*
X019217Y000551D01*
X019152Y000650D02*
X019024Y000650D01*
X019065Y000749D02*
X019116Y000749D01*
X019105Y000847D02*
X019065Y000847D01*
X019065Y000946D02*
X019105Y000946D01*
X019105Y001044D02*
X019065Y001044D01*
X020005Y001044D02*
X020715Y001044D01*
X020715Y000946D02*
X020005Y000946D01*
X020005Y000847D02*
X020715Y000847D01*
X020715Y000749D02*
X019995Y000749D01*
X019958Y000650D02*
X020715Y000650D01*
X020715Y000551D02*
X019893Y000551D01*
X019767Y000453D02*
X020715Y000453D01*
X018080Y001635D02*
X018031Y001635D01*
X017990Y001734D02*
X018121Y001734D01*
X018216Y001832D02*
X017894Y001832D01*
X017728Y001931D02*
X018382Y001931D01*
X016795Y002128D02*
X020715Y002128D01*
X020715Y002226D02*
X016795Y002226D01*
X016795Y002325D02*
X020715Y002325D01*
X020715Y002423D02*
X016795Y002423D01*
X016795Y002522D02*
X020715Y002522D01*
X020715Y002620D02*
X016795Y002620D01*
X016795Y002719D02*
X020715Y002719D01*
X020715Y002817D02*
X016795Y002817D01*
X016795Y002916D02*
X020715Y002916D01*
X020715Y003014D02*
X016795Y003014D01*
X016795Y003113D02*
X020715Y003113D01*
X020715Y003211D02*
X016795Y003211D01*
X016795Y003310D02*
X020715Y003310D01*
X020715Y003408D02*
X016795Y003408D01*
X016795Y003507D02*
X020715Y003507D01*
X020715Y003605D02*
X016795Y003605D01*
X016795Y003704D02*
X020715Y003704D01*
X020715Y003802D02*
X016795Y003802D01*
X016795Y003901D02*
X020715Y003901D01*
X020715Y003999D02*
X016795Y003999D01*
X016795Y004098D02*
X019454Y004098D01*
X019333Y004196D02*
X016795Y004196D01*
X016795Y004295D02*
X019270Y004295D01*
X019235Y004393D02*
X016795Y004393D01*
X016795Y004492D02*
X019925Y004492D01*
X019925Y004540D02*
X019227Y004540D01*
X019236Y004595D01*
X019258Y004663D01*
X019290Y004726D01*
X019332Y004783D01*
X019382Y004833D01*
X019439Y004875D01*
X019502Y004907D01*
X019570Y004929D01*
X019640Y004940D01*
X019925Y004940D01*
X019925Y004540D01*
X019925Y004590D02*
X020025Y004590D01*
X020025Y004540D02*
X020715Y004540D01*
X020715Y004440D01*
X020025Y004440D01*
X020025Y004540D01*
X020025Y004492D02*
X020715Y004492D01*
X020715Y004590D02*
X020715Y004590D01*
X020715Y004689D02*
X020679Y004689D01*
X020715Y004787D02*
X020615Y004787D01*
X020715Y004886D02*
X020490Y004886D01*
X020386Y004984D02*
X020715Y004984D01*
X020715Y005083D02*
X020589Y005083D01*
X020687Y005181D02*
X020715Y005181D01*
X020025Y004886D02*
X019925Y004886D01*
X019925Y004787D02*
X020025Y004787D01*
X020025Y004689D02*
X019925Y004689D01*
X019460Y004886D02*
X016795Y004886D01*
X016795Y004984D02*
X019564Y004984D01*
X019361Y005083D02*
X016795Y005083D01*
X016795Y005181D02*
X019263Y005181D01*
X019210Y005280D02*
X016795Y005280D01*
X016795Y005378D02*
X019169Y005378D01*
X019165Y005477D02*
X016795Y005477D01*
X016795Y005575D02*
X019165Y005575D01*
X019199Y005674D02*
X016795Y005674D01*
X016795Y005772D02*
X019240Y005772D01*
X019334Y005871D02*
X016795Y005871D01*
X018214Y005969D02*
X019499Y005969D01*
X019376Y006068D02*
X018312Y006068D01*
X018411Y006166D02*
X019278Y006166D01*
X019216Y006265D02*
X018509Y006265D01*
X018608Y006363D02*
X019176Y006363D01*
X019165Y006462D02*
X018706Y006462D01*
X018805Y006560D02*
X019165Y006560D01*
X019193Y006659D02*
X018903Y006659D01*
X019002Y006757D02*
X019109Y006757D01*
X019492Y007053D02*
X020715Y007053D01*
X020715Y007151D02*
X019394Y007151D01*
X019295Y007250D02*
X020715Y007250D01*
X020715Y007348D02*
X019197Y007348D01*
X019098Y007447D02*
X020715Y007447D01*
X020715Y007545D02*
X019000Y007545D01*
X018901Y007644D02*
X020715Y007644D01*
X020715Y007742D02*
X018803Y007742D01*
X018704Y007841D02*
X020715Y007841D01*
X020715Y007939D02*
X018606Y007939D01*
X018507Y008038D02*
X020715Y008038D01*
X020715Y008136D02*
X018409Y008136D01*
X018310Y008235D02*
X020715Y008235D01*
X020715Y008333D02*
X018212Y008333D01*
X018113Y008432D02*
X020715Y008432D01*
X020715Y008530D02*
X018015Y008530D01*
X017916Y008629D02*
X020715Y008629D01*
X020715Y008727D02*
X017880Y008727D01*
X017840Y008826D02*
X020715Y008826D01*
X020715Y008924D02*
X017748Y008924D01*
X017522Y009023D02*
X020715Y009023D01*
X020715Y009121D02*
X017424Y009121D01*
X017325Y009220D02*
X020715Y009220D01*
X020715Y009318D02*
X017227Y009318D01*
X017128Y009417D02*
X020715Y009417D01*
X020715Y009515D02*
X017030Y009515D01*
X016931Y009614D02*
X020715Y009614D01*
X020715Y009712D02*
X016833Y009712D01*
X016734Y009811D02*
X020715Y009811D01*
X020715Y009909D02*
X003265Y009909D01*
X003265Y009811D02*
X005369Y009811D01*
X005271Y009712D02*
X003265Y009712D01*
X003265Y009614D02*
X005172Y009614D01*
X004699Y009515D02*
X004171Y009515D01*
X004270Y009417D02*
X004600Y009417D01*
X004502Y009318D02*
X004368Y009318D01*
X003699Y009515D02*
X003265Y009515D01*
X003265Y009417D02*
X003600Y009417D01*
X003502Y009318D02*
X003265Y009318D01*
X003265Y009220D02*
X003425Y009220D01*
X003425Y009121D02*
X003265Y009121D01*
X003265Y009023D02*
X003425Y009023D01*
X003425Y008924D02*
X003265Y008924D01*
X003265Y008826D02*
X003425Y008826D01*
X003517Y008727D02*
X003265Y008727D01*
X003265Y008629D02*
X003615Y008629D01*
X003714Y008530D02*
X003265Y008530D01*
X003265Y008432D02*
X003615Y008432D01*
X003517Y008333D02*
X003265Y008333D01*
X003265Y008235D02*
X003425Y008235D01*
X003425Y008136D02*
X003265Y008136D01*
X003265Y008038D02*
X003425Y008038D01*
X003425Y007939D02*
X003265Y007939D01*
X003265Y007841D02*
X003425Y007841D01*
X003502Y007742D02*
X003265Y007742D01*
X003265Y007644D02*
X003600Y007644D01*
X003690Y007545D02*
X003265Y007545D01*
X003265Y007447D02*
X003690Y007447D01*
X003690Y007348D02*
X003265Y007348D01*
X003265Y007250D02*
X003690Y007250D01*
X003719Y007151D02*
X003265Y007151D01*
X003265Y007053D02*
X003806Y007053D01*
X003905Y006954D02*
X003265Y006954D01*
X003265Y006856D02*
X008007Y006856D01*
X008007Y006757D02*
X003265Y006757D01*
X003265Y006659D02*
X003904Y006659D01*
X004028Y006710D02*
X003719Y006582D01*
X003483Y006346D01*
X003355Y006037D01*
X003355Y005703D01*
X003483Y005394D01*
X003719Y005158D01*
X004028Y005030D01*
X004362Y005030D01*
X004671Y005158D01*
X004907Y005394D01*
X005035Y005703D01*
X005035Y006037D01*
X004907Y006346D01*
X004671Y006582D01*
X004362Y006710D01*
X004028Y006710D01*
X003697Y006560D02*
X003265Y006560D01*
X003265Y006462D02*
X003599Y006462D01*
X003500Y006363D02*
X003265Y006363D01*
X003265Y006265D02*
X003449Y006265D01*
X003409Y006166D02*
X003265Y006166D01*
X003265Y006068D02*
X003368Y006068D01*
X003355Y005969D02*
X003265Y005969D01*
X003265Y005871D02*
X003355Y005871D01*
X003355Y005772D02*
X003265Y005772D01*
X003265Y005674D02*
X003367Y005674D01*
X003408Y005575D02*
X003265Y005575D01*
X003265Y005477D02*
X003449Y005477D01*
X003499Y005378D02*
X003265Y005378D01*
X003265Y005280D02*
X003598Y005280D01*
X003696Y005181D02*
X003265Y005181D01*
X003265Y005083D02*
X003901Y005083D01*
X004489Y005083D02*
X006205Y005083D01*
X006205Y005181D02*
X004694Y005181D01*
X004792Y005280D02*
X006231Y005280D01*
X006272Y005378D02*
X004891Y005378D01*
X004941Y005477D02*
X006359Y005477D01*
X006513Y005575D02*
X004982Y005575D01*
X005023Y005674D02*
X013052Y005674D01*
X012954Y005772D02*
X005035Y005772D01*
X005035Y005871D02*
X012855Y005871D01*
X012757Y005969D02*
X005035Y005969D01*
X005022Y006068D02*
X008545Y006068D01*
X008420Y006166D02*
X004982Y006166D01*
X004941Y006265D02*
X008321Y006265D01*
X008223Y006363D02*
X004890Y006363D01*
X004791Y006462D02*
X008155Y006462D01*
X008056Y006560D02*
X004693Y006560D01*
X004486Y006659D02*
X008007Y006659D01*
X009262Y006910D02*
X011007Y006910D01*
X011103Y006910D01*
X011191Y006947D01*
X011682Y007437D01*
X011694Y007442D01*
X011772Y007520D01*
X012146Y007520D01*
X012435Y007809D01*
X012724Y007520D01*
X013146Y007520D01*
X013435Y007809D01*
X013724Y007520D01*
X014146Y007520D01*
X014435Y007809D01*
X014724Y007520D01*
X015146Y007520D01*
X015445Y007819D01*
X015445Y008241D01*
X015156Y008530D01*
X015435Y008809D01*
X015724Y008520D01*
X016146Y008520D01*
X016445Y008819D01*
X016445Y009241D01*
X016276Y009410D01*
X016456Y009410D01*
X017225Y008641D01*
X017225Y008584D01*
X017275Y008463D01*
X017368Y008370D01*
X017489Y008320D01*
X017546Y008320D01*
X018716Y007150D01*
X018355Y006789D01*
X018335Y006837D01*
X018242Y006930D01*
X018121Y006980D01*
X017989Y006980D01*
X017868Y006930D01*
X017828Y006890D01*
X009282Y006890D01*
X009262Y006910D01*
X009146Y007520D02*
X008724Y007520D01*
X008425Y007819D01*
X008425Y008241D01*
X008714Y008530D01*
X008435Y008809D01*
X008146Y008520D01*
X007724Y008520D01*
X007435Y008809D01*
X007156Y008530D01*
X007445Y008241D01*
X007445Y007819D01*
X007146Y007520D01*
X006724Y007520D01*
X006435Y007809D01*
X006146Y007520D01*
X005724Y007520D01*
X005435Y007809D01*
X005146Y007520D01*
X004724Y007520D01*
X004435Y007809D01*
X004180Y007554D01*
X004180Y007390D01*
X010956Y007390D01*
X011086Y007520D01*
X010724Y007520D01*
X010435Y007809D01*
X010146Y007520D01*
X009724Y007520D01*
X009435Y007809D01*
X009146Y007520D01*
X009171Y007545D02*
X009699Y007545D01*
X009600Y007644D02*
X009270Y007644D01*
X009368Y007742D02*
X009502Y007742D01*
X010171Y007545D02*
X010699Y007545D01*
X010600Y007644D02*
X010270Y007644D01*
X010368Y007742D02*
X010502Y007742D01*
X011012Y007447D02*
X004180Y007447D01*
X004180Y007545D02*
X004699Y007545D01*
X004600Y007644D02*
X004270Y007644D01*
X004368Y007742D02*
X004502Y007742D01*
X005171Y007545D02*
X005699Y007545D01*
X005600Y007644D02*
X005270Y007644D01*
X005368Y007742D02*
X005502Y007742D01*
X006171Y007545D02*
X006699Y007545D01*
X006600Y007644D02*
X006270Y007644D01*
X006368Y007742D02*
X006502Y007742D01*
X007171Y007545D02*
X008699Y007545D01*
X008600Y007644D02*
X008185Y007644D01*
X008122Y007580D02*
X008385Y007844D01*
X008385Y007980D01*
X007985Y007980D01*
X007985Y007580D01*
X008122Y007580D01*
X007985Y007644D02*
X007885Y007644D01*
X007885Y007580D02*
X007885Y007980D01*
X007485Y007980D01*
X007485Y007844D01*
X007749Y007580D01*
X007885Y007580D01*
X007885Y007742D02*
X007985Y007742D01*
X007985Y007841D02*
X007885Y007841D01*
X007885Y007939D02*
X007985Y007939D01*
X007985Y007980D02*
X007885Y007980D01*
X007885Y008080D01*
X007485Y008080D01*
X007485Y008216D01*
X007749Y008480D01*
X007885Y008480D01*
X007885Y008080D01*
X007985Y008080D01*
X007985Y008480D01*
X008122Y008480D01*
X008385Y008216D01*
X008385Y008080D01*
X007985Y008080D01*
X007985Y007980D01*
X007985Y008038D02*
X008425Y008038D01*
X008425Y008136D02*
X008385Y008136D01*
X008367Y008235D02*
X008425Y008235D01*
X008517Y008333D02*
X008268Y008333D01*
X008170Y008432D02*
X008615Y008432D01*
X008714Y008530D02*
X008156Y008530D01*
X008255Y008629D02*
X008615Y008629D01*
X008517Y008727D02*
X008353Y008727D01*
X007985Y008432D02*
X007885Y008432D01*
X007885Y008333D02*
X007985Y008333D01*
X007985Y008235D02*
X007885Y008235D01*
X007885Y008136D02*
X007985Y008136D01*
X007885Y008038D02*
X007445Y008038D01*
X007445Y008136D02*
X007485Y008136D01*
X007503Y008235D02*
X007445Y008235D01*
X007353Y008333D02*
X007602Y008333D01*
X007700Y008432D02*
X007255Y008432D01*
X007156Y008530D02*
X007714Y008530D01*
X007615Y008629D02*
X007255Y008629D01*
X007353Y008727D02*
X007517Y008727D01*
X006714Y008530D02*
X006435Y008251D01*
X006146Y008540D01*
X005724Y008540D01*
X005435Y008251D01*
X005156Y008530D01*
X005445Y008819D01*
X005445Y009194D01*
X005662Y009410D01*
X005679Y009410D01*
X005485Y009216D01*
X005485Y009080D01*
X005885Y009080D01*
X005885Y008980D01*
X005485Y008980D01*
X005485Y008844D01*
X005749Y008580D01*
X005885Y008580D01*
X005885Y008980D01*
X005985Y008980D01*
X005985Y008580D01*
X006122Y008580D01*
X006385Y008844D01*
X006385Y008980D01*
X005985Y008980D01*
X005985Y009080D01*
X006385Y009080D01*
X006385Y009216D01*
X006192Y009410D01*
X006594Y009410D01*
X006425Y009241D01*
X006425Y008819D01*
X006714Y008530D01*
X006156Y008530D01*
X006170Y008629D02*
X006615Y008629D01*
X006517Y008727D02*
X006269Y008727D01*
X006367Y008826D02*
X006425Y008826D01*
X006425Y008924D02*
X006385Y008924D01*
X006425Y009023D02*
X005985Y009023D01*
X005985Y008924D02*
X005885Y008924D01*
X005885Y008826D02*
X005985Y008826D01*
X005985Y008727D02*
X005885Y008727D01*
X005885Y008629D02*
X005985Y008629D01*
X005700Y008629D02*
X005255Y008629D01*
X005353Y008727D02*
X005602Y008727D01*
X005503Y008826D02*
X005445Y008826D01*
X005445Y008924D02*
X005485Y008924D01*
X005445Y009023D02*
X005885Y009023D01*
X005485Y009121D02*
X005445Y009121D01*
X005471Y009220D02*
X005488Y009220D01*
X005570Y009318D02*
X005587Y009318D01*
X006283Y009318D02*
X006502Y009318D01*
X006425Y009220D02*
X006382Y009220D01*
X006385Y009121D02*
X006425Y009121D01*
X005714Y008530D02*
X005156Y008530D01*
X005255Y008432D02*
X005615Y008432D01*
X005517Y008333D02*
X005353Y008333D01*
X006255Y008432D02*
X006615Y008432D01*
X006517Y008333D02*
X006353Y008333D01*
X007445Y007939D02*
X007485Y007939D01*
X007488Y007841D02*
X007445Y007841D01*
X007368Y007742D02*
X007587Y007742D01*
X007685Y007644D02*
X007270Y007644D01*
X008284Y007742D02*
X008502Y007742D01*
X008425Y007841D02*
X008382Y007841D01*
X008385Y007939D02*
X008425Y007939D01*
X009156Y008530D02*
X009435Y008251D01*
X009724Y008540D01*
X010146Y008540D01*
X010435Y008251D01*
X010714Y008530D01*
X010425Y008819D01*
X010425Y009241D01*
X010594Y009410D01*
X010192Y009410D01*
X010385Y009216D01*
X010385Y009080D01*
X009985Y009080D01*
X009985Y008980D01*
X009985Y008580D01*
X010122Y008580D01*
X010385Y008844D01*
X010385Y008980D01*
X009985Y008980D01*
X009885Y008980D01*
X009485Y008980D01*
X009485Y008844D01*
X009749Y008580D01*
X009885Y008580D01*
X009885Y008980D01*
X009885Y009080D01*
X009485Y009080D01*
X009485Y009216D01*
X009679Y009410D01*
X009276Y009410D01*
X009445Y009241D01*
X009445Y008819D01*
X009156Y008530D01*
X009714Y008530D01*
X009700Y008629D02*
X009255Y008629D01*
X009353Y008727D02*
X009602Y008727D01*
X009503Y008826D02*
X009445Y008826D01*
X009445Y008924D02*
X009485Y008924D01*
X009445Y009023D02*
X009885Y009023D01*
X009885Y008924D02*
X009985Y008924D01*
X009985Y008826D02*
X009885Y008826D01*
X009885Y008727D02*
X009985Y008727D01*
X009985Y008629D02*
X009885Y008629D01*
X010170Y008629D02*
X010615Y008629D01*
X010517Y008727D02*
X010269Y008727D01*
X010367Y008826D02*
X010425Y008826D01*
X010425Y008924D02*
X010385Y008924D01*
X010425Y009023D02*
X009985Y009023D01*
X010385Y009121D02*
X010425Y009121D01*
X010425Y009220D02*
X010382Y009220D01*
X010283Y009318D02*
X010502Y009318D01*
X009587Y009318D02*
X009368Y009318D01*
X009445Y009220D02*
X009488Y009220D01*
X009485Y009121D02*
X009445Y009121D01*
X010156Y008530D02*
X010714Y008530D01*
X010615Y008432D02*
X010255Y008432D01*
X010353Y008333D02*
X010517Y008333D01*
X009615Y008432D02*
X009255Y008432D01*
X009353Y008333D02*
X009517Y008333D01*
X011593Y007348D02*
X018518Y007348D01*
X018616Y007250D02*
X011494Y007250D01*
X011396Y007151D02*
X018715Y007151D01*
X018618Y007053D02*
X011297Y007053D01*
X011199Y006954D02*
X017927Y006954D01*
X018183Y006954D02*
X018520Y006954D01*
X018421Y006856D02*
X018316Y006856D01*
X018419Y007447D02*
X011698Y007447D01*
X012171Y007545D02*
X012699Y007545D01*
X012600Y007644D02*
X012270Y007644D01*
X012368Y007742D02*
X012502Y007742D01*
X013171Y007545D02*
X013699Y007545D01*
X013600Y007644D02*
X013270Y007644D01*
X013368Y007742D02*
X013502Y007742D01*
X014171Y007545D02*
X014699Y007545D01*
X014600Y007644D02*
X014270Y007644D01*
X014368Y007742D02*
X014502Y007742D01*
X015171Y007545D02*
X018321Y007545D01*
X018222Y007644D02*
X016185Y007644D01*
X016122Y007580D02*
X016385Y007844D01*
X016385Y007980D01*
X015985Y007980D01*
X015985Y007580D01*
X016122Y007580D01*
X015985Y007644D02*
X015885Y007644D01*
X015885Y007580D02*
X015885Y007980D01*
X015485Y007980D01*
X015485Y007844D01*
X015749Y007580D01*
X015885Y007580D01*
X015885Y007742D02*
X015985Y007742D01*
X015985Y007841D02*
X015885Y007841D01*
X015885Y007939D02*
X015985Y007939D01*
X015985Y007980D02*
X015885Y007980D01*
X015885Y008080D01*
X015485Y008080D01*
X015485Y008216D01*
X015749Y008480D01*
X015885Y008480D01*
X015885Y008080D01*
X015985Y008080D01*
X015985Y008480D01*
X016122Y008480D01*
X016385Y008216D01*
X016385Y008080D01*
X015985Y008080D01*
X015985Y007980D01*
X015985Y008038D02*
X017828Y008038D01*
X017730Y008136D02*
X016385Y008136D01*
X016367Y008235D02*
X017631Y008235D01*
X017458Y008333D02*
X016268Y008333D01*
X016170Y008432D02*
X017307Y008432D01*
X017248Y008530D02*
X016156Y008530D01*
X016255Y008629D02*
X017225Y008629D01*
X017139Y008727D02*
X016353Y008727D01*
X016445Y008826D02*
X017040Y008826D01*
X016942Y008924D02*
X016445Y008924D01*
X016445Y009023D02*
X016843Y009023D01*
X016745Y009121D02*
X016445Y009121D01*
X016445Y009220D02*
X016646Y009220D01*
X016548Y009318D02*
X016368Y009318D01*
X015517Y008727D02*
X015353Y008727D01*
X015255Y008629D02*
X015615Y008629D01*
X015714Y008530D02*
X015156Y008530D01*
X015255Y008432D02*
X015700Y008432D01*
X015602Y008333D02*
X015353Y008333D01*
X015445Y008235D02*
X015503Y008235D01*
X015485Y008136D02*
X015445Y008136D01*
X015445Y008038D02*
X015885Y008038D01*
X015885Y008136D02*
X015985Y008136D01*
X015985Y008235D02*
X015885Y008235D01*
X015885Y008333D02*
X015985Y008333D01*
X015985Y008432D02*
X015885Y008432D01*
X015485Y007939D02*
X015445Y007939D01*
X015445Y007841D02*
X015488Y007841D01*
X015587Y007742D02*
X015368Y007742D01*
X015270Y007644D02*
X015685Y007644D01*
X016284Y007742D02*
X018124Y007742D01*
X018025Y007841D02*
X016382Y007841D01*
X016385Y007939D02*
X017927Y007939D01*
X020488Y006954D02*
X020715Y006954D01*
X020715Y006856D02*
X020631Y006856D01*
X019336Y004787D02*
X016795Y004787D01*
X016795Y004689D02*
X019271Y004689D01*
X019235Y004590D02*
X016795Y004590D01*
X014577Y003901D02*
X009055Y003901D01*
X009055Y003802D02*
X014478Y003802D01*
X014380Y003704D02*
X009055Y003704D01*
X009055Y003605D02*
X014367Y003605D01*
X014367Y003507D02*
X009055Y003507D01*
X009055Y003408D02*
X014367Y003408D01*
X014427Y003310D02*
X009055Y003310D01*
X009055Y003211D02*
X014515Y003211D01*
X014515Y003113D02*
X009092Y003113D01*
X009191Y003014D02*
X013810Y003014D01*
X014260Y003014D02*
X014515Y003014D01*
X014515Y002916D02*
X014358Y002916D01*
X014423Y002817D02*
X014515Y002817D01*
X014515Y002719D02*
X014423Y002719D01*
X014423Y002620D02*
X014515Y002620D01*
X014540Y002522D02*
X014415Y002522D01*
X014317Y002423D02*
X014623Y002423D01*
X014667Y002325D02*
X014218Y002325D01*
X013852Y002325D02*
X004837Y002325D01*
X004919Y002423D02*
X013753Y002423D01*
X014667Y002226D02*
X004739Y002226D01*
X004597Y002128D02*
X014709Y002128D01*
X014807Y002029D02*
X003265Y002029D01*
X003265Y001931D02*
X003382Y001931D01*
X003265Y002128D02*
X003793Y002128D01*
X003651Y002226D02*
X003265Y002226D01*
X003265Y002325D02*
X003553Y002325D01*
X003471Y002423D02*
X003265Y002423D01*
X003265Y002522D02*
X003430Y002522D01*
X003390Y002620D02*
X003265Y002620D01*
X003265Y002719D02*
X003355Y002719D01*
X003355Y002817D02*
X003265Y002817D01*
X003265Y002916D02*
X003355Y002916D01*
X003355Y003014D02*
X003265Y003014D01*
X003265Y003113D02*
X003386Y003113D01*
X003427Y003211D02*
X003265Y003211D01*
X003265Y003310D02*
X003468Y003310D01*
X003545Y003408D02*
X003265Y003408D01*
X003265Y003507D02*
X003644Y003507D01*
X003775Y003605D02*
X003265Y003605D01*
X003265Y003704D02*
X004013Y003704D01*
X004378Y003704D02*
X006585Y003704D01*
X006405Y003802D02*
X003265Y003802D01*
X003265Y003901D02*
X006324Y003901D01*
X006282Y003999D02*
X003265Y003999D01*
X003265Y004689D02*
X006456Y004689D01*
X006335Y004787D02*
X003265Y004787D01*
X003265Y004886D02*
X006262Y004886D01*
X006221Y004984D02*
X003265Y004984D01*
X006877Y005575D02*
X013151Y005575D01*
X013249Y005477D02*
X007032Y005477D01*
X008532Y005378D02*
X013348Y005378D01*
X013446Y005280D02*
X008665Y005280D01*
X007381Y003999D02*
X007108Y003999D01*
X007066Y003901D02*
X007283Y003901D01*
X007240Y003802D02*
X006985Y003802D01*
X008575Y003014D02*
X005035Y003014D01*
X005035Y002916D02*
X008611Y002916D01*
X008709Y002817D02*
X005035Y002817D01*
X005035Y002719D02*
X008807Y002719D01*
X008906Y002620D02*
X005001Y002620D01*
X004960Y002522D02*
X009004Y002522D01*
X006382Y001931D02*
X003728Y001931D01*
X003894Y001832D02*
X004315Y001832D01*
X004319Y001835D02*
X004262Y001793D01*
X004212Y001743D01*
X004170Y001686D01*
X004138Y001623D01*
X004116Y001555D01*
X004105Y001485D01*
X004105Y001200D01*
X004505Y001200D01*
X004505Y001100D01*
X004105Y001100D01*
X004105Y000815D01*
X004116Y000745D01*
X004138Y000677D01*
X004170Y000614D01*
X004212Y000557D01*
X004262Y000507D01*
X004319Y000465D01*
X004382Y000433D01*
X004450Y000411D01*
X004505Y000402D01*
X004505Y001100D01*
X004605Y001100D01*
X004605Y000402D01*
X004660Y000411D01*
X004728Y000433D01*
X004791Y000465D01*
X004848Y000507D01*
X004898Y000557D01*
X004940Y000614D01*
X004972Y000677D01*
X004994Y000745D01*
X005005Y000815D01*
X005005Y001100D01*
X004605Y001100D01*
X004605Y001200D01*
X004505Y001200D01*
X004505Y001898D01*
X004450Y001889D01*
X004382Y001867D01*
X004319Y001835D01*
X004205Y001734D02*
X003990Y001734D01*
X004031Y001635D02*
X004144Y001635D01*
X004113Y001537D02*
X004065Y001537D01*
X004065Y001438D02*
X004105Y001438D01*
X004105Y001340D02*
X004065Y001340D01*
X004065Y001241D02*
X004105Y001241D01*
X004065Y001143D02*
X004505Y001143D01*
X004505Y001241D02*
X004605Y001241D01*
X004605Y001200D02*
X004605Y001898D01*
X004660Y001889D01*
X004728Y001867D01*
X004791Y001835D01*
X004848Y001793D01*
X004898Y001743D01*
X004940Y001686D01*
X004972Y001623D01*
X004994Y001555D01*
X005005Y001485D01*
X005005Y001200D01*
X004605Y001200D01*
X004605Y001143D02*
X005505Y001143D01*
X005505Y001100D02*
X005505Y001200D01*
X005105Y001200D01*
X005105Y001485D01*
X005116Y001555D01*
X005138Y001623D01*
X005170Y001686D01*
X005212Y001743D01*
X005262Y001793D01*
X005319Y001835D01*
X005382Y001867D01*
X005450Y001889D01*
X005505Y001898D01*
X005505Y001200D01*
X005605Y001200D01*
X005605Y001898D01*
X005660Y001889D01*
X005728Y001867D01*
X005791Y001835D01*
X005848Y001793D01*
X005898Y001743D01*
X005940Y001686D01*
X005972Y001623D01*
X005994Y001555D01*
X006005Y001485D01*
X006005Y001200D01*
X005605Y001200D01*
X005605Y001100D01*
X005605Y000402D01*
X005660Y000411D01*
X005728Y000433D01*
X005791Y000465D01*
X005848Y000507D01*
X005898Y000557D01*
X005940Y000614D01*
X005972Y000677D01*
X005994Y000745D01*
X006005Y000815D01*
X006005Y001100D01*
X005605Y001100D01*
X005505Y001100D01*
X005105Y001100D01*
X005105Y000815D01*
X005116Y000745D01*
X005138Y000677D01*
X005170Y000614D01*
X005212Y000557D01*
X005262Y000507D01*
X005319Y000465D01*
X005382Y000433D01*
X005450Y000411D01*
X005505Y000402D01*
X005505Y001100D01*
X005505Y001044D02*
X005605Y001044D01*
X005605Y000946D02*
X005505Y000946D01*
X005505Y000847D02*
X005605Y000847D01*
X005605Y000749D02*
X005505Y000749D01*
X005505Y000650D02*
X005605Y000650D01*
X005605Y000551D02*
X005505Y000551D01*
X005505Y000453D02*
X005605Y000453D01*
X005767Y000453D02*
X006231Y000453D01*
X006132Y000551D02*
X005893Y000551D01*
X005958Y000650D02*
X006086Y000650D01*
X006045Y000749D02*
X005995Y000749D01*
X006005Y000847D02*
X006045Y000847D01*
X006045Y000946D02*
X006005Y000946D01*
X006005Y001044D02*
X006045Y001044D01*
X006045Y001143D02*
X005605Y001143D01*
X005605Y001241D02*
X005505Y001241D01*
X005505Y001340D02*
X005605Y001340D01*
X005605Y001438D02*
X005505Y001438D01*
X005505Y001537D02*
X005605Y001537D01*
X005605Y001635D02*
X005505Y001635D01*
X005505Y001734D02*
X005605Y001734D01*
X005605Y001832D02*
X005505Y001832D01*
X005315Y001832D02*
X004795Y001832D01*
X004905Y001734D02*
X005205Y001734D01*
X005144Y001635D02*
X004966Y001635D01*
X004997Y001537D02*
X005113Y001537D01*
X005105Y001438D02*
X005005Y001438D01*
X005005Y001340D02*
X005105Y001340D01*
X005105Y001241D02*
X005005Y001241D01*
X005005Y001044D02*
X005105Y001044D01*
X005105Y000946D02*
X005005Y000946D01*
X005005Y000847D02*
X005105Y000847D01*
X005116Y000749D02*
X004995Y000749D01*
X004958Y000650D02*
X005152Y000650D01*
X005217Y000551D02*
X004893Y000551D01*
X004767Y000453D02*
X005343Y000453D01*
X004605Y000453D02*
X004505Y000453D01*
X004505Y000551D02*
X004605Y000551D01*
X004605Y000650D02*
X004505Y000650D01*
X004505Y000749D02*
X004605Y000749D01*
X004605Y000847D02*
X004505Y000847D01*
X004505Y000946D02*
X004605Y000946D01*
X004605Y001044D02*
X004505Y001044D01*
X004505Y001340D02*
X004605Y001340D01*
X004605Y001438D02*
X004505Y001438D01*
X004505Y001537D02*
X004605Y001537D01*
X004605Y001635D02*
X004505Y001635D01*
X004505Y001734D02*
X004605Y001734D01*
X004605Y001832D02*
X004505Y001832D01*
X005795Y001832D02*
X006216Y001832D01*
X006121Y001734D02*
X005905Y001734D01*
X005966Y001635D02*
X006080Y001635D01*
X006045Y001537D02*
X005997Y001537D01*
X006005Y001438D02*
X006045Y001438D01*
X006045Y001340D02*
X006005Y001340D01*
X006005Y001241D02*
X006045Y001241D01*
X004343Y000453D02*
X003879Y000453D01*
X003978Y000551D02*
X004217Y000551D01*
X004152Y000650D02*
X004024Y000650D01*
X004065Y000749D02*
X004116Y000749D01*
X004105Y000847D02*
X004065Y000847D01*
X004065Y000946D02*
X004105Y000946D01*
X004105Y001044D02*
X004065Y001044D01*
X012156Y008530D02*
X012435Y008251D01*
X012724Y008540D01*
X013146Y008540D01*
X013435Y008251D01*
X013714Y008530D01*
X013425Y008819D01*
X013425Y009241D01*
X013594Y009410D01*
X013192Y009410D01*
X013385Y009216D01*
X013385Y009080D01*
X012985Y009080D01*
X012985Y008980D01*
X012985Y008580D01*
X013122Y008580D01*
X013385Y008844D01*
X013385Y008980D01*
X012985Y008980D01*
X012885Y008980D01*
X012485Y008980D01*
X012485Y008844D01*
X012749Y008580D01*
X012885Y008580D01*
X012885Y008980D01*
X012885Y009080D01*
X012485Y009080D01*
X012485Y009216D01*
X012679Y009410D01*
X012276Y009410D01*
X012445Y009241D01*
X012445Y008819D01*
X012156Y008530D01*
X012714Y008530D01*
X012700Y008629D02*
X012255Y008629D01*
X012353Y008727D02*
X012602Y008727D01*
X012503Y008826D02*
X012445Y008826D01*
X012445Y008924D02*
X012485Y008924D01*
X012445Y009023D02*
X012885Y009023D01*
X012885Y008924D02*
X012985Y008924D01*
X012985Y008826D02*
X012885Y008826D01*
X012885Y008727D02*
X012985Y008727D01*
X012985Y008629D02*
X012885Y008629D01*
X013170Y008629D02*
X013615Y008629D01*
X013517Y008727D02*
X013269Y008727D01*
X013367Y008826D02*
X013425Y008826D01*
X013425Y008924D02*
X013385Y008924D01*
X013425Y009023D02*
X012985Y009023D01*
X013385Y009121D02*
X013425Y009121D01*
X013425Y009220D02*
X013382Y009220D01*
X013283Y009318D02*
X013502Y009318D01*
X012587Y009318D02*
X012368Y009318D01*
X012445Y009220D02*
X012488Y009220D01*
X012485Y009121D02*
X012445Y009121D01*
X013156Y008530D02*
X013714Y008530D01*
X013615Y008432D02*
X013255Y008432D01*
X013353Y008333D02*
X013517Y008333D01*
X012615Y008432D02*
X012255Y008432D01*
X012353Y008333D02*
X012517Y008333D01*
X020715Y010008D02*
X003265Y010008D01*
X019925Y004393D02*
X020025Y004393D01*
X020025Y004295D02*
X019925Y004295D01*
X019925Y004196D02*
X020025Y004196D01*
X020025Y004098D02*
X019925Y004098D01*
X020496Y004098D02*
X020715Y004098D01*
X020715Y004196D02*
X020618Y004196D01*
X020681Y004295D02*
X020715Y004295D01*
D15*
X016015Y005090D03*
X014815Y005450D03*
X013495Y006170D03*
X014095Y004370D03*
X014755Y003530D03*
X014035Y002690D03*
X015055Y002330D03*
X008395Y006770D03*
D16*
X008395Y006530D01*
X008635Y006290D01*
X012775Y006290D01*
X013975Y005090D01*
X016015Y005090D01*
X014815Y005450D02*
X014035Y005450D01*
X013495Y005990D01*
X013495Y006170D01*
X011555Y007650D02*
X011055Y007150D01*
X004055Y007150D01*
X006695Y005120D02*
X006725Y005150D01*
X008455Y005150D01*
X008815Y004790D01*
X008815Y003050D01*
X009175Y002690D01*
X014035Y002690D01*
X014755Y002630D02*
X015055Y002330D01*
X014755Y002630D02*
X014755Y003530D01*
X014095Y004370D02*
X014095Y004430D01*
X014035Y004490D01*
X016555Y006150D02*
X018055Y006150D01*
X019055Y007150D01*
X017555Y008650D01*
X016555Y009650D01*
X005555Y009650D01*
X009055Y006650D02*
X018055Y006650D01*
X019055Y007150D02*
X019555Y006650D01*
X019975Y006490D01*
X020755Y006723D02*
X019409Y008070D01*
X020755Y006723D02*
X020755Y005150D01*
X020095Y004490D01*
X019975Y004490D01*
X016555Y006150D02*
X016555Y001150D01*
D17*
X004055Y007150D02*
X003935Y007270D01*
X003935Y008030D01*
X003935Y009030D02*
X004935Y009030D01*
X005555Y009650D01*
X011555Y007650D02*
X011935Y008030D01*
D18*
X009055Y006650D03*
X017555Y008650D03*
X018055Y006650D03*
M02*
