G75*
G70*
%OFA0B0*%
%FSLAX24Y24*%
%IPPOS*%
%LPD*%
%AMOC8*
5,1,8,0,0,1.08239X$1,22.5*
%
%ADD10C,0.0000*%
%ADD11C,0.0030*%
%ADD12C,0.0020*%
%ADD13C,0.0060*%
%ADD14C,0.0050*%
%ADD15R,0.0200X0.0200*%
%ADD16C,0.0040*%
%ADD17C,0.0080*%
%ADD18R,0.0118X0.0059*%
%ADD19R,0.0118X0.0118*%
D10*
X003055Y000150D02*
X003055Y010226D01*
X020925Y010226D01*
X020925Y000150D01*
X003055Y000150D01*
X003565Y002870D02*
X003567Y002920D01*
X003573Y002970D01*
X003583Y003019D01*
X003597Y003067D01*
X003614Y003114D01*
X003635Y003159D01*
X003660Y003203D01*
X003688Y003244D01*
X003720Y003283D01*
X003754Y003320D01*
X003791Y003354D01*
X003831Y003384D01*
X003873Y003411D01*
X003917Y003435D01*
X003963Y003456D01*
X004010Y003472D01*
X004058Y003485D01*
X004108Y003494D01*
X004157Y003499D01*
X004208Y003500D01*
X004258Y003497D01*
X004307Y003490D01*
X004356Y003479D01*
X004404Y003464D01*
X004450Y003446D01*
X004495Y003424D01*
X004538Y003398D01*
X004579Y003369D01*
X004618Y003337D01*
X004654Y003302D01*
X004686Y003264D01*
X004716Y003224D01*
X004743Y003181D01*
X004766Y003137D01*
X004785Y003091D01*
X004801Y003043D01*
X004813Y002994D01*
X004821Y002945D01*
X004825Y002895D01*
X004825Y002845D01*
X004821Y002795D01*
X004813Y002746D01*
X004801Y002697D01*
X004785Y002649D01*
X004766Y002603D01*
X004743Y002559D01*
X004716Y002516D01*
X004686Y002476D01*
X004654Y002438D01*
X004618Y002403D01*
X004579Y002371D01*
X004538Y002342D01*
X004495Y002316D01*
X004450Y002294D01*
X004404Y002276D01*
X004356Y002261D01*
X004307Y002250D01*
X004258Y002243D01*
X004208Y002240D01*
X004157Y002241D01*
X004108Y002246D01*
X004058Y002255D01*
X004010Y002268D01*
X003963Y002284D01*
X003917Y002305D01*
X003873Y002329D01*
X003831Y002356D01*
X003791Y002386D01*
X003754Y002420D01*
X003720Y002457D01*
X003688Y002496D01*
X003660Y002537D01*
X003635Y002581D01*
X003614Y002626D01*
X003597Y002673D01*
X003583Y002721D01*
X003573Y002770D01*
X003567Y002820D01*
X003565Y002870D01*
X003565Y005870D02*
X003567Y005920D01*
X003573Y005970D01*
X003583Y006019D01*
X003597Y006067D01*
X003614Y006114D01*
X003635Y006159D01*
X003660Y006203D01*
X003688Y006244D01*
X003720Y006283D01*
X003754Y006320D01*
X003791Y006354D01*
X003831Y006384D01*
X003873Y006411D01*
X003917Y006435D01*
X003963Y006456D01*
X004010Y006472D01*
X004058Y006485D01*
X004108Y006494D01*
X004157Y006499D01*
X004208Y006500D01*
X004258Y006497D01*
X004307Y006490D01*
X004356Y006479D01*
X004404Y006464D01*
X004450Y006446D01*
X004495Y006424D01*
X004538Y006398D01*
X004579Y006369D01*
X004618Y006337D01*
X004654Y006302D01*
X004686Y006264D01*
X004716Y006224D01*
X004743Y006181D01*
X004766Y006137D01*
X004785Y006091D01*
X004801Y006043D01*
X004813Y005994D01*
X004821Y005945D01*
X004825Y005895D01*
X004825Y005845D01*
X004821Y005795D01*
X004813Y005746D01*
X004801Y005697D01*
X004785Y005649D01*
X004766Y005603D01*
X004743Y005559D01*
X004716Y005516D01*
X004686Y005476D01*
X004654Y005438D01*
X004618Y005403D01*
X004579Y005371D01*
X004538Y005342D01*
X004495Y005316D01*
X004450Y005294D01*
X004404Y005276D01*
X004356Y005261D01*
X004307Y005250D01*
X004258Y005243D01*
X004208Y005240D01*
X004157Y005241D01*
X004108Y005246D01*
X004058Y005255D01*
X004010Y005268D01*
X003963Y005284D01*
X003917Y005305D01*
X003873Y005329D01*
X003831Y005356D01*
X003791Y005386D01*
X003754Y005420D01*
X003720Y005457D01*
X003688Y005496D01*
X003660Y005537D01*
X003635Y005581D01*
X003614Y005626D01*
X003597Y005673D01*
X003583Y005721D01*
X003573Y005770D01*
X003567Y005820D01*
X003565Y005870D01*
X012795Y002840D02*
X012797Y002861D01*
X012802Y002881D01*
X012811Y002900D01*
X012823Y002917D01*
X012838Y002932D01*
X012855Y002944D01*
X012874Y002953D01*
X012894Y002958D01*
X012915Y002960D01*
X012936Y002958D01*
X012956Y002953D01*
X012975Y002944D01*
X012992Y002932D01*
X013007Y002917D01*
X013019Y002900D01*
X013028Y002881D01*
X013033Y002861D01*
X013035Y002840D01*
D11*
X014067Y002887D02*
X014380Y002573D01*
X014223Y002573D02*
X014223Y002887D01*
X014380Y002887D02*
X014067Y002573D01*
X014067Y002730D02*
X014380Y002730D01*
X016670Y002649D02*
X016917Y002649D01*
X017040Y002525D01*
X016917Y002402D01*
X016670Y002402D01*
X016670Y002280D02*
X016670Y002033D01*
X016855Y002033D01*
X016793Y002157D01*
X016793Y002218D01*
X016855Y002280D01*
X016978Y002280D01*
X017040Y002218D01*
X017040Y002095D01*
X016978Y002033D01*
X016855Y001912D02*
X016855Y001665D01*
X016732Y001788D02*
X016978Y001788D01*
X017670Y001850D02*
X017670Y001665D01*
X018040Y001665D01*
X018040Y001850D01*
X017978Y001912D01*
X017732Y001912D01*
X017670Y001850D01*
X017917Y002095D02*
X017978Y002033D01*
X018040Y002095D01*
X018040Y002280D01*
X017855Y002280D01*
X017793Y002218D01*
X017793Y002095D01*
X017917Y002095D02*
X017917Y002280D01*
X017793Y002402D02*
X017793Y002525D01*
X017732Y002463D02*
X017978Y002463D01*
X018040Y002525D01*
X017978Y002647D02*
X017917Y002709D01*
X017917Y002894D01*
X017855Y002894D02*
X018040Y002894D01*
X018040Y002709D01*
X017978Y002647D01*
X017793Y002709D02*
X017793Y002832D01*
X017855Y002894D01*
X018793Y002832D02*
X018793Y002709D01*
X018793Y002832D02*
X018855Y002894D01*
X019040Y002894D01*
X019040Y002709D01*
X018978Y002647D01*
X018917Y002709D01*
X018917Y002894D01*
X019040Y002525D02*
X018978Y002463D01*
X018732Y002463D01*
X018793Y002402D02*
X018793Y002525D01*
X018855Y002280D02*
X019040Y002280D01*
X019040Y002095D01*
X018978Y002033D01*
X018917Y002095D01*
X018917Y002280D01*
X018855Y002280D02*
X018793Y002218D01*
X018793Y002095D01*
X018732Y001912D02*
X018670Y001850D01*
X018670Y001665D01*
X019040Y001665D01*
X019040Y001850D01*
X018978Y001912D01*
X018732Y001912D01*
X019670Y001850D02*
X019670Y001727D01*
X019732Y001665D01*
X019978Y001665D01*
X020040Y001727D01*
X020040Y001850D01*
X019978Y001912D01*
X019855Y001912D01*
X019855Y001788D01*
X019732Y001912D02*
X019670Y001850D01*
X019670Y002033D02*
X020040Y002280D01*
X019670Y002280D01*
X019670Y002402D02*
X019670Y002587D01*
X019732Y002649D01*
X019978Y002649D01*
X020040Y002587D01*
X020040Y002402D01*
X019670Y002402D01*
X019670Y002033D02*
X020040Y002033D01*
X019172Y004005D02*
X018987Y004005D01*
X018987Y004375D01*
X019172Y004375D01*
X019234Y004314D01*
X019234Y004067D01*
X019172Y004005D01*
X018865Y004005D02*
X018865Y004375D01*
X018618Y004375D02*
X018865Y004005D01*
X018618Y004005D02*
X018618Y004375D01*
X018497Y004314D02*
X018435Y004375D01*
X018312Y004375D01*
X018250Y004314D01*
X018250Y004067D01*
X018312Y004005D01*
X018435Y004005D01*
X018497Y004067D01*
X018497Y004190D01*
X018374Y004190D01*
X018315Y005365D02*
X018130Y005365D01*
X018130Y005735D01*
X018315Y005735D01*
X018377Y005674D01*
X018377Y005427D01*
X018315Y005365D01*
X018498Y005427D02*
X018560Y005488D01*
X018745Y005488D01*
X018745Y005550D02*
X018745Y005365D01*
X018560Y005365D01*
X018498Y005427D01*
X018684Y005612D02*
X018745Y005550D01*
X018684Y005612D02*
X018560Y005612D01*
X018867Y005612D02*
X018990Y005612D01*
X018928Y005674D02*
X018928Y005427D01*
X018990Y005365D01*
X019112Y005427D02*
X019174Y005488D01*
X019359Y005488D01*
X019359Y005550D02*
X019359Y005365D01*
X019174Y005365D01*
X019112Y005427D01*
X019297Y005612D02*
X019359Y005550D01*
X019297Y005612D02*
X019174Y005612D01*
X019230Y006325D02*
X019354Y006448D01*
X019354Y006695D01*
X019107Y006695D02*
X019107Y006448D01*
X019230Y006325D01*
X018985Y006387D02*
X018924Y006325D01*
X018800Y006325D01*
X018738Y006387D01*
X018738Y006510D02*
X018862Y006572D01*
X018924Y006572D01*
X018985Y006510D01*
X018985Y006387D01*
X018738Y006510D02*
X018738Y006695D01*
X018985Y006695D01*
X018617Y006510D02*
X018370Y006510D01*
X018494Y006387D02*
X018494Y006634D01*
X007040Y002525D02*
X006917Y002649D01*
X006670Y002649D01*
X006670Y002402D02*
X006917Y002402D01*
X007040Y002525D01*
X006978Y002280D02*
X007040Y002218D01*
X007040Y002095D01*
X006978Y002033D01*
X006855Y002033D02*
X006793Y002157D01*
X006793Y002218D01*
X006855Y002280D01*
X006978Y002280D01*
X006670Y002280D02*
X006670Y002033D01*
X006855Y002033D01*
X006855Y001912D02*
X006855Y001665D01*
X006732Y001788D02*
X006978Y001788D01*
X006040Y001727D02*
X006040Y001850D01*
X005978Y001912D01*
X005855Y001912D01*
X005855Y001788D01*
X005732Y001665D02*
X005978Y001665D01*
X006040Y001727D01*
X005732Y001665D02*
X005670Y001727D01*
X005670Y001850D01*
X005732Y001912D01*
X005670Y002033D02*
X006040Y002280D01*
X005670Y002280D01*
X005670Y002402D02*
X005670Y002587D01*
X005732Y002649D01*
X005978Y002649D01*
X006040Y002587D01*
X006040Y002402D01*
X005670Y002402D01*
X005040Y002402D02*
X005040Y002587D01*
X004978Y002649D01*
X004732Y002649D01*
X004670Y002587D01*
X004670Y002402D01*
X005040Y002402D01*
X005040Y002280D02*
X004670Y002280D01*
X004670Y002033D02*
X005040Y002280D01*
X005040Y002033D02*
X004670Y002033D01*
X004732Y001912D02*
X004670Y001850D01*
X004670Y001727D01*
X004732Y001665D01*
X004978Y001665D01*
X005040Y001727D01*
X005040Y001850D01*
X004978Y001912D01*
X004855Y001912D01*
X004855Y001788D01*
X004040Y001665D02*
X003793Y001665D01*
X003670Y001788D01*
X003793Y001912D01*
X004040Y001912D01*
X004040Y002033D02*
X003793Y002033D01*
X003793Y002218D01*
X003855Y002280D01*
X004040Y002280D01*
X003978Y002463D02*
X003732Y002463D01*
X003793Y002402D02*
X003793Y002525D01*
X003855Y002647D02*
X003793Y002709D01*
X003793Y002832D01*
X003855Y002894D01*
X003917Y002894D01*
X003917Y002647D01*
X003978Y002647D02*
X003855Y002647D01*
X003978Y002647D02*
X004040Y002709D01*
X004040Y002832D01*
X004040Y003015D02*
X003793Y003015D01*
X003793Y003201D01*
X003855Y003262D01*
X004040Y003262D01*
X004040Y003384D02*
X003793Y003384D01*
X003793Y003569D01*
X003855Y003631D01*
X004040Y003631D01*
X003978Y003752D02*
X003917Y003814D01*
X003917Y003999D01*
X003855Y003999D02*
X004040Y003999D01*
X004040Y003814D01*
X003978Y003752D01*
X003793Y003814D02*
X003793Y003937D01*
X003855Y003999D01*
X004040Y002525D02*
X003978Y002463D01*
X003855Y001912D02*
X003855Y001665D01*
X005670Y002033D02*
X006040Y002033D01*
D12*
X007215Y001720D02*
X007402Y001720D01*
X007491Y001627D02*
X007538Y001580D01*
X007631Y001580D01*
X007678Y001627D01*
X007678Y001673D01*
X007631Y001720D01*
X007585Y001720D01*
X007631Y001720D02*
X007678Y001767D01*
X007678Y001814D01*
X007631Y001860D01*
X007538Y001860D01*
X007491Y001814D01*
X007355Y001860D02*
X007215Y001720D01*
X007355Y001580D02*
X007355Y001860D01*
X007768Y001814D02*
X007814Y001860D01*
X007908Y001860D01*
X007954Y001814D01*
X007954Y001767D01*
X007908Y001720D01*
X007954Y001673D01*
X007954Y001627D01*
X007908Y001580D01*
X007814Y001580D01*
X007768Y001627D01*
X007861Y001720D02*
X007908Y001720D01*
X008044Y001627D02*
X008091Y001627D01*
X008091Y001580D01*
X008044Y001580D01*
X008044Y001627D01*
X008182Y001627D02*
X008229Y001580D01*
X008322Y001580D01*
X008369Y001627D01*
X008369Y001814D01*
X008322Y001860D01*
X008229Y001860D01*
X008182Y001814D01*
X008182Y001767D01*
X008229Y001720D01*
X008369Y001720D01*
X008458Y001814D02*
X008505Y001860D01*
X008598Y001860D01*
X008645Y001814D01*
X008645Y001767D01*
X008458Y001580D01*
X008645Y001580D01*
X008734Y001580D02*
X008734Y001860D01*
X008828Y001767D01*
X008921Y001860D01*
X008921Y001580D01*
X009011Y001580D02*
X009011Y001860D01*
X009011Y001720D02*
X009197Y001720D01*
X009287Y001767D02*
X009474Y001767D01*
X009287Y001580D01*
X009474Y001580D01*
X009197Y001580D02*
X009197Y001860D01*
X009839Y001860D02*
X009886Y001860D01*
X009886Y001580D01*
X009839Y001580D02*
X009933Y001580D01*
X010024Y001627D02*
X010024Y001720D01*
X010070Y001767D01*
X010164Y001767D01*
X010210Y001720D01*
X010210Y001627D01*
X010164Y001580D01*
X010070Y001580D01*
X010024Y001627D01*
X010300Y001627D02*
X010346Y001580D01*
X010393Y001627D01*
X010440Y001580D01*
X010487Y001627D01*
X010487Y001767D01*
X010300Y001767D02*
X010300Y001627D01*
X010300Y001457D02*
X010300Y001410D01*
X010300Y001317D02*
X010300Y001130D01*
X010254Y001130D02*
X010347Y001130D01*
X010438Y001177D02*
X010438Y001270D01*
X010485Y001317D01*
X010625Y001317D01*
X010625Y001410D02*
X010625Y001130D01*
X010485Y001130D01*
X010438Y001177D01*
X010300Y001317D02*
X010254Y001317D01*
X009888Y001317D02*
X009748Y001317D01*
X009701Y001270D01*
X009701Y001177D01*
X009748Y001130D01*
X009888Y001130D01*
X009888Y001410D01*
X009612Y001270D02*
X009612Y001130D01*
X009425Y001130D02*
X009425Y001317D01*
X009565Y001317D01*
X009612Y001270D01*
X009336Y001270D02*
X009336Y001130D01*
X009195Y001130D01*
X009149Y001177D01*
X009195Y001223D01*
X009336Y001223D01*
X009336Y001270D02*
X009289Y001317D01*
X009195Y001317D01*
X008783Y001270D02*
X008783Y001130D01*
X008643Y001130D01*
X008596Y001177D01*
X008643Y001223D01*
X008783Y001223D01*
X008783Y001270D02*
X008736Y001317D01*
X008643Y001317D01*
X008507Y001270D02*
X008507Y001130D01*
X008413Y001130D02*
X008413Y001270D01*
X008460Y001317D01*
X008507Y001270D01*
X008413Y001270D02*
X008367Y001317D01*
X008320Y001317D01*
X008320Y001130D01*
X008231Y001223D02*
X008044Y001223D01*
X008044Y001177D02*
X008044Y001270D01*
X008091Y001317D01*
X008184Y001317D01*
X008231Y001270D01*
X008231Y001223D01*
X008184Y001130D02*
X008091Y001130D01*
X008044Y001177D01*
X007954Y001130D02*
X007954Y001270D01*
X007908Y001317D01*
X007814Y001317D01*
X007768Y001270D01*
X007678Y001317D02*
X007538Y001317D01*
X007491Y001270D01*
X007491Y001177D01*
X007538Y001130D01*
X007678Y001130D01*
X007768Y001130D02*
X007768Y001410D01*
X007402Y001364D02*
X007355Y001410D01*
X007262Y001410D01*
X007215Y001364D01*
X007215Y001317D01*
X007262Y001270D01*
X007355Y001270D01*
X007402Y001223D01*
X007402Y001177D01*
X007355Y001130D01*
X007262Y001130D01*
X007215Y001177D01*
X007215Y000960D02*
X007355Y000960D01*
X007402Y000914D01*
X007402Y000820D01*
X007355Y000773D01*
X007215Y000773D01*
X007215Y000680D02*
X007215Y000960D01*
X007491Y000914D02*
X007491Y000727D01*
X007538Y000680D01*
X007631Y000680D01*
X007678Y000727D01*
X007768Y000680D02*
X007908Y000680D01*
X007954Y000727D01*
X007954Y000773D01*
X007908Y000820D01*
X007768Y000820D01*
X007678Y000914D02*
X007631Y000960D01*
X007538Y000960D01*
X007491Y000914D01*
X007768Y000960D02*
X007908Y000960D01*
X007954Y000914D01*
X007954Y000867D01*
X007908Y000820D01*
X007768Y000680D02*
X007768Y000960D01*
X008320Y000960D02*
X008320Y000680D01*
X008460Y000680D01*
X008507Y000727D01*
X008507Y000820D01*
X008460Y000867D01*
X008320Y000867D01*
X008596Y000867D02*
X008596Y000727D01*
X008643Y000680D01*
X008783Y000680D01*
X008783Y000633D02*
X008736Y000587D01*
X008690Y000587D01*
X008783Y000633D02*
X008783Y000867D01*
X009149Y000960D02*
X009149Y000680D01*
X009149Y000773D02*
X009289Y000773D01*
X009336Y000820D01*
X009336Y000914D01*
X009289Y000960D01*
X009149Y000960D01*
X009472Y000867D02*
X009565Y000867D01*
X009612Y000820D01*
X009612Y000680D01*
X009472Y000680D01*
X009425Y000727D01*
X009472Y000773D01*
X009612Y000773D01*
X009701Y000727D02*
X009748Y000680D01*
X009888Y000680D01*
X009888Y000867D01*
X009977Y000960D02*
X010024Y000960D01*
X010024Y000680D01*
X009977Y000680D02*
X010071Y000680D01*
X010438Y000727D02*
X010485Y000680D01*
X010578Y000680D01*
X010625Y000727D01*
X010625Y000773D01*
X010578Y000820D01*
X010485Y000820D01*
X010438Y000867D01*
X010438Y000914D01*
X010485Y000960D01*
X010578Y000960D01*
X010625Y000914D01*
X010714Y000820D02*
X010761Y000867D01*
X010854Y000867D01*
X010901Y000820D01*
X010901Y000727D01*
X010854Y000680D01*
X010761Y000680D01*
X010714Y000727D01*
X010714Y000820D01*
X010990Y000820D02*
X011037Y000867D01*
X011130Y000867D01*
X011177Y000820D01*
X011177Y000680D01*
X011267Y000680D02*
X011360Y000680D01*
X011313Y000680D02*
X011313Y000867D01*
X011267Y000867D01*
X011313Y000960D02*
X011313Y001007D01*
X011177Y001130D02*
X011037Y001130D01*
X010990Y001177D01*
X011037Y001223D01*
X011177Y001223D01*
X011177Y001270D02*
X011177Y001130D01*
X010990Y000960D02*
X010990Y000680D01*
X011451Y000727D02*
X011451Y000820D01*
X011497Y000867D01*
X011591Y000867D01*
X011638Y000820D01*
X011638Y000773D01*
X011451Y000773D01*
X011451Y000727D02*
X011497Y000680D01*
X011591Y000680D01*
X011727Y000680D02*
X011727Y000867D01*
X011820Y000867D02*
X011867Y000867D01*
X011820Y000867D02*
X011727Y000773D01*
X011774Y001130D02*
X011867Y001130D01*
X011914Y001177D01*
X012003Y001130D02*
X012097Y001223D01*
X012097Y001317D01*
X012003Y001410D01*
X011914Y001364D02*
X011867Y001410D01*
X011774Y001410D01*
X011727Y001364D01*
X011727Y001177D01*
X011774Y001130D01*
X011636Y001130D02*
X011543Y001223D01*
X011543Y001317D01*
X011636Y001410D01*
X011681Y001580D02*
X011821Y001580D01*
X011868Y001627D01*
X011821Y001673D01*
X011728Y001673D01*
X011681Y001720D01*
X011728Y001767D01*
X011868Y001767D01*
X011592Y001767D02*
X011451Y001767D01*
X011405Y001720D01*
X011451Y001673D01*
X011545Y001673D01*
X011592Y001627D01*
X011545Y001580D01*
X011405Y001580D01*
X011315Y001580D02*
X011175Y001580D01*
X011128Y001627D01*
X011175Y001673D01*
X011315Y001673D01*
X011315Y001720D02*
X011315Y001580D01*
X011315Y001720D02*
X011269Y001767D01*
X011175Y001767D01*
X011039Y001720D02*
X011039Y001627D01*
X010992Y001580D01*
X010852Y001580D01*
X010852Y001487D02*
X010852Y001767D01*
X010992Y001767D01*
X011039Y001720D01*
X011037Y001317D02*
X011130Y001317D01*
X011177Y001270D01*
X010901Y001270D02*
X010901Y001223D01*
X010714Y001223D01*
X010714Y001177D02*
X010714Y001270D01*
X010761Y001317D01*
X010854Y001317D01*
X010901Y001270D01*
X010761Y001130D02*
X010714Y001177D01*
X010761Y001130D02*
X010854Y001130D01*
X009701Y000867D02*
X009701Y000727D01*
X012280Y001580D02*
X012280Y001814D01*
X012327Y001860D01*
X012418Y001767D02*
X012464Y001767D01*
X012464Y001580D01*
X012418Y001580D02*
X012511Y001580D01*
X012602Y001580D02*
X012695Y001580D01*
X012648Y001580D02*
X012648Y001860D01*
X012602Y001860D01*
X012464Y001860D02*
X012464Y001907D01*
X012327Y001720D02*
X012233Y001720D01*
X012510Y001410D02*
X012464Y001364D01*
X012464Y001177D01*
X012510Y001130D01*
X012604Y001130D01*
X012650Y001177D01*
X012740Y001177D02*
X012787Y001130D01*
X012927Y001130D01*
X012927Y001317D01*
X013016Y001317D02*
X013016Y001130D01*
X013016Y001223D02*
X013109Y001317D01*
X013156Y001317D01*
X013246Y001410D02*
X013293Y001410D01*
X013293Y001130D01*
X013246Y001130D02*
X013340Y001130D01*
X013430Y001177D02*
X013477Y001130D01*
X013617Y001130D01*
X013617Y001083D02*
X013571Y001037D01*
X013524Y001037D01*
X013617Y001083D02*
X013617Y001317D01*
X013707Y001410D02*
X013800Y001317D01*
X013893Y001410D01*
X013893Y001130D01*
X013983Y001177D02*
X014030Y001130D01*
X014123Y001130D01*
X014170Y001177D01*
X014170Y001270D01*
X014123Y001317D01*
X014030Y001317D01*
X013983Y001270D01*
X013983Y001177D01*
X013707Y001130D02*
X013707Y001410D01*
X013430Y001317D02*
X013430Y001177D01*
X012740Y001177D02*
X012740Y001317D01*
X012650Y001364D02*
X012604Y001410D01*
X012510Y001410D01*
X012833Y001627D02*
X012879Y001580D01*
X012833Y001627D02*
X012833Y001814D01*
X012879Y001767D02*
X012786Y001767D01*
X012970Y001720D02*
X013017Y001767D01*
X013110Y001767D01*
X013157Y001720D01*
X013157Y001673D01*
X012970Y001673D01*
X012970Y001627D02*
X012970Y001720D01*
X012970Y001627D02*
X013017Y001580D01*
X013110Y001580D01*
X013246Y001580D02*
X013246Y001767D01*
X013246Y001673D02*
X013340Y001767D01*
X013386Y001767D01*
X014306Y001177D02*
X014306Y001130D01*
X014353Y001130D01*
X014353Y001177D01*
X014306Y001177D01*
X014353Y001130D02*
X014259Y001037D01*
X014720Y001130D02*
X014906Y001317D01*
X014906Y001364D01*
X014860Y001410D01*
X014766Y001410D01*
X014720Y001364D01*
X014996Y001364D02*
X015042Y001410D01*
X015136Y001410D01*
X015183Y001364D01*
X014996Y001177D01*
X015042Y001130D01*
X015136Y001130D01*
X015183Y001177D01*
X015183Y001364D01*
X015272Y001317D02*
X015365Y001410D01*
X015365Y001130D01*
X015272Y001130D02*
X015459Y001130D01*
X015548Y001177D02*
X015595Y001130D01*
X015688Y001130D01*
X015735Y001177D01*
X015735Y001223D01*
X015688Y001270D01*
X015642Y001270D01*
X015688Y001270D02*
X015735Y001317D01*
X015735Y001364D01*
X015688Y001410D01*
X015595Y001410D01*
X015548Y001364D01*
X014996Y001364D02*
X014996Y001177D01*
X014906Y001130D02*
X014720Y001130D01*
X015025Y004060D02*
X018525Y004060D01*
D13*
X018525Y004070D02*
X018525Y005310D01*
X018523Y005333D01*
X018518Y005356D01*
X018509Y005378D01*
X018496Y005398D01*
X018481Y005416D01*
X018463Y005431D01*
X018443Y005444D01*
X018421Y005453D01*
X018398Y005458D01*
X018375Y005460D01*
X019475Y005240D02*
X019475Y005740D01*
X019725Y005990D01*
X019475Y006240D01*
X019475Y006740D01*
X019725Y006990D01*
X020225Y006990D01*
X020475Y006740D01*
X020475Y006240D01*
X020225Y005990D01*
X020475Y005740D01*
X020475Y005240D01*
X020225Y004990D01*
X020475Y004740D01*
X020475Y004240D01*
X020225Y003990D01*
X019725Y003990D01*
X019475Y004240D01*
X019475Y004740D01*
X019725Y004990D01*
X019475Y005240D01*
X019725Y004990D02*
X020225Y004990D01*
X020225Y005990D02*
X019725Y005990D01*
X016435Y007780D02*
X016435Y009280D01*
X016185Y009530D01*
X015685Y009530D01*
X015435Y009280D01*
X015435Y007780D01*
X015685Y007530D01*
X016185Y007530D01*
X016435Y007780D01*
X015435Y007780D02*
X015185Y007530D01*
X014685Y007530D01*
X014435Y007780D01*
X014435Y009280D01*
X014685Y009530D01*
X015185Y009530D01*
X015435Y009280D01*
X014435Y009280D02*
X014185Y009530D01*
X013685Y009530D01*
X013435Y009280D01*
X013435Y007780D01*
X013185Y007530D01*
X012685Y007530D01*
X012435Y007780D01*
X012435Y009280D01*
X012685Y009530D01*
X013185Y009530D01*
X013435Y009280D01*
X012435Y009280D02*
X012185Y009530D01*
X011685Y009530D01*
X011435Y009280D01*
X011435Y007780D01*
X011185Y007530D01*
X010685Y007530D01*
X010435Y007780D01*
X010435Y009280D01*
X010685Y009530D01*
X011185Y009530D01*
X011435Y009280D01*
X010435Y009280D02*
X010185Y009530D01*
X009685Y009530D01*
X009435Y009280D01*
X009435Y007780D01*
X009685Y007530D01*
X010185Y007530D01*
X010435Y007780D01*
X011435Y007780D02*
X011685Y007530D01*
X012185Y007530D01*
X012435Y007780D01*
X013435Y007780D02*
X013685Y007530D01*
X014185Y007530D01*
X014435Y007780D01*
X015025Y005310D02*
X015025Y004890D01*
X015025Y004490D01*
X015025Y004070D01*
X015027Y004047D01*
X015032Y004024D01*
X015041Y004002D01*
X015054Y003982D01*
X015069Y003964D01*
X015087Y003949D01*
X015107Y003936D01*
X015129Y003927D01*
X015152Y003922D01*
X015175Y003920D01*
X013805Y004060D02*
X012025Y004060D01*
X012025Y002840D02*
X012795Y002840D01*
X013035Y002840D01*
X013805Y002840D01*
X016055Y001400D02*
X016305Y001650D01*
X016805Y001650D01*
X017055Y001400D01*
X017305Y001650D01*
X017805Y001650D01*
X018055Y001400D01*
X018055Y000900D01*
X017805Y000650D01*
X017305Y000650D01*
X017055Y000900D01*
X016805Y000650D01*
X016305Y000650D01*
X016055Y000900D01*
X016055Y001400D01*
X017055Y001400D02*
X017055Y000900D01*
X018055Y000900D02*
X018305Y000650D01*
X018805Y000650D01*
X019055Y000900D01*
X019305Y000650D01*
X019805Y000650D01*
X020055Y000900D01*
X020055Y001400D01*
X019805Y001650D01*
X019305Y001650D01*
X019055Y001400D01*
X019055Y000900D01*
X019055Y001400D02*
X018805Y001650D01*
X018305Y001650D01*
X018055Y001400D01*
X018375Y003920D02*
X018398Y003922D01*
X018421Y003927D01*
X018443Y003936D01*
X018463Y003949D01*
X018481Y003964D01*
X018496Y003982D01*
X018509Y004002D01*
X018518Y004024D01*
X018523Y004047D01*
X018525Y004070D01*
X015175Y005460D02*
X015152Y005458D01*
X015129Y005453D01*
X015107Y005444D01*
X015087Y005431D01*
X015069Y005416D01*
X015054Y005398D01*
X015041Y005378D01*
X015032Y005356D01*
X015027Y005333D01*
X015025Y005310D01*
X015025Y004890D02*
X015052Y004888D01*
X015079Y004883D01*
X015105Y004873D01*
X015129Y004861D01*
X015151Y004845D01*
X015171Y004827D01*
X015188Y004805D01*
X015203Y004782D01*
X015213Y004757D01*
X015221Y004731D01*
X015225Y004704D01*
X015225Y004676D01*
X015221Y004649D01*
X015213Y004623D01*
X015203Y004598D01*
X015188Y004575D01*
X015171Y004553D01*
X015151Y004535D01*
X015129Y004519D01*
X015105Y004507D01*
X015079Y004497D01*
X015052Y004492D01*
X015025Y004490D01*
X009435Y007780D02*
X009185Y007530D01*
X008685Y007530D01*
X008435Y007780D01*
X008435Y009280D01*
X008685Y009530D01*
X009185Y009530D01*
X009435Y009280D01*
X008435Y009280D02*
X008185Y009530D01*
X007685Y009530D01*
X007435Y009280D01*
X007435Y007780D01*
X007685Y007530D01*
X008185Y007530D01*
X008435Y007780D01*
X007435Y007780D02*
X007185Y007530D01*
X006685Y007530D01*
X006435Y007780D01*
X006435Y009280D01*
X006685Y009530D01*
X007185Y009530D01*
X007435Y009280D01*
X006435Y009280D02*
X006185Y009530D01*
X005685Y009530D01*
X005435Y009280D01*
X005435Y007780D01*
X005685Y007530D01*
X006185Y007530D01*
X006435Y007780D01*
X005435Y007780D02*
X005185Y007530D01*
X004685Y007530D01*
X004435Y007780D01*
X004435Y009280D01*
X004685Y009530D01*
X005185Y009530D01*
X005435Y009280D01*
X004435Y009280D02*
X004185Y009530D01*
X003685Y009530D01*
X003435Y009280D01*
X003435Y007780D01*
X003685Y007530D01*
X004185Y007530D01*
X004435Y007780D01*
X004305Y001650D02*
X004805Y001650D01*
X005055Y001400D01*
X005055Y000900D01*
X004805Y000650D01*
X004305Y000650D01*
X004055Y000900D01*
X003805Y000650D01*
X003305Y000650D01*
X003055Y000900D01*
X003055Y001400D01*
X003305Y001650D01*
X003805Y001650D01*
X004055Y001400D01*
X004305Y001650D01*
X004055Y001400D02*
X004055Y000900D01*
X005055Y000900D02*
X005305Y000650D01*
X005805Y000650D01*
X006055Y000900D01*
X006305Y000650D01*
X006805Y000650D01*
X007055Y000900D01*
X007055Y001400D01*
X006805Y001650D01*
X006305Y001650D01*
X006055Y001400D01*
X006055Y000900D01*
X006055Y001400D02*
X005805Y001650D01*
X005305Y001650D01*
X005055Y001400D01*
D14*
X005096Y000805D02*
X004871Y000805D01*
X004871Y000355D01*
X004871Y000505D02*
X005096Y000505D01*
X005171Y000580D01*
X005171Y000730D01*
X005096Y000805D01*
X005331Y000655D02*
X005481Y000805D01*
X005481Y000355D01*
X005331Y000355D02*
X005631Y000355D01*
X004710Y000805D02*
X004560Y000805D01*
X004635Y000805D02*
X004635Y000430D01*
X004560Y000355D01*
X004485Y000355D01*
X004410Y000430D01*
X013752Y004495D02*
X013903Y004495D01*
X013827Y004495D02*
X013827Y004945D01*
X013752Y004945D02*
X013903Y004945D01*
X014059Y004870D02*
X014059Y004570D01*
X014134Y004495D01*
X014285Y004495D01*
X014360Y004570D01*
X014520Y004495D02*
X014820Y004495D01*
X014670Y004495D02*
X014670Y004945D01*
X014520Y004795D01*
X014360Y004870D02*
X014285Y004945D01*
X014134Y004945D01*
X014059Y004870D01*
X020280Y007135D02*
X020280Y007285D01*
X020280Y007210D02*
X020655Y007210D01*
X020730Y007135D01*
X020730Y007060D01*
X020655Y006985D01*
X020580Y007445D02*
X020580Y007671D01*
X020505Y007746D01*
X020355Y007746D01*
X020280Y007671D01*
X020280Y007445D01*
X020730Y007445D01*
X020655Y007906D02*
X020730Y007981D01*
X020730Y008131D01*
X020655Y008206D01*
X020580Y008206D01*
X020505Y008131D01*
X020505Y008056D01*
X020505Y008131D02*
X020430Y008206D01*
X020355Y008206D01*
X020280Y008131D01*
X020280Y007981D01*
X020355Y007906D01*
X018576Y000865D02*
X018426Y000865D01*
X018351Y000790D01*
X018191Y000790D02*
X018191Y000640D01*
X018116Y000565D01*
X017891Y000565D01*
X017655Y000490D02*
X017655Y000865D01*
X017580Y000865D02*
X017730Y000865D01*
X017891Y000865D02*
X018116Y000865D01*
X018191Y000790D01*
X017891Y000865D02*
X017891Y000415D01*
X017655Y000490D02*
X017580Y000415D01*
X017505Y000415D01*
X017430Y000490D01*
X018351Y000415D02*
X018651Y000715D01*
X018651Y000790D01*
X018576Y000865D01*
X018651Y000415D02*
X018351Y000415D01*
X004531Y006945D02*
X004231Y006945D01*
X004381Y006945D02*
X004381Y007395D01*
X004231Y007245D01*
X004071Y007095D02*
X004071Y007395D01*
X003771Y007395D02*
X003771Y007095D01*
X003921Y006945D01*
X004071Y007095D01*
X003610Y007095D02*
X003610Y007020D01*
X003535Y006945D01*
X003385Y006945D01*
X003310Y007020D01*
X003385Y007170D02*
X003535Y007170D01*
X003610Y007095D01*
X003610Y007320D02*
X003535Y007395D01*
X003385Y007395D01*
X003310Y007320D01*
X003310Y007245D01*
X003385Y007170D01*
D15*
X003935Y008030D03*
X004935Y008030D03*
X005935Y008030D03*
X006935Y008030D03*
X007935Y008030D03*
X008935Y008030D03*
X009935Y008030D03*
X010935Y008030D03*
X011935Y008030D03*
X012935Y008030D03*
X013935Y008030D03*
X014935Y008030D03*
X015935Y008030D03*
X015935Y009030D03*
X014935Y009030D03*
X013935Y009030D03*
X012935Y009030D03*
X011935Y009030D03*
X010935Y009030D03*
X009935Y009030D03*
X008935Y009030D03*
X007935Y009030D03*
X006935Y009030D03*
X005935Y009030D03*
X004935Y009030D03*
X003935Y009030D03*
D16*
X006475Y007120D02*
X006782Y006660D01*
X006936Y006660D02*
X007242Y006660D01*
X007089Y006660D02*
X007089Y007120D01*
X006936Y006967D01*
X006782Y007120D02*
X006475Y006660D01*
X011084Y004850D02*
X011084Y004390D01*
X011084Y004543D02*
X011315Y004543D01*
X011391Y004620D01*
X011391Y004774D01*
X011315Y004850D01*
X011084Y004850D01*
X011545Y004697D02*
X011698Y004850D01*
X011698Y004390D01*
X011545Y004390D02*
X011852Y004390D01*
X011391Y004390D02*
X011238Y004543D01*
X009423Y004101D02*
X009423Y003641D01*
X009576Y003641D02*
X009269Y003641D01*
X009116Y003718D02*
X009039Y003641D01*
X008886Y003641D01*
X008809Y003718D01*
X008809Y004025D01*
X008886Y004101D01*
X009039Y004101D01*
X009116Y004025D01*
X009269Y003948D02*
X009423Y004101D01*
X011265Y002504D02*
X011265Y002197D01*
X011342Y002120D01*
X011495Y002120D01*
X011572Y002197D01*
X011726Y002120D02*
X012032Y002427D01*
X012032Y002504D01*
X011956Y002580D01*
X011802Y002580D01*
X011726Y002504D01*
X011572Y002504D02*
X011495Y002580D01*
X011342Y002580D01*
X011265Y002504D01*
X011726Y002120D02*
X012032Y002120D01*
X013941Y005760D02*
X014095Y005760D01*
X014171Y005837D01*
X014325Y005837D02*
X014401Y005760D01*
X014555Y005760D01*
X014632Y005837D01*
X014632Y005913D01*
X014555Y005990D01*
X014478Y005990D01*
X014555Y005990D02*
X014632Y006067D01*
X014632Y006144D01*
X014555Y006220D01*
X014401Y006220D01*
X014325Y006144D01*
X014171Y006144D02*
X014095Y006220D01*
X013941Y006220D01*
X013864Y006144D01*
X013864Y005837D01*
X013941Y005760D01*
X011735Y005830D02*
X011275Y005830D01*
X011275Y006060D01*
X011351Y006137D01*
X011505Y006137D01*
X011582Y006060D01*
X011582Y005830D01*
X011582Y005983D02*
X011735Y006137D01*
X011735Y006290D02*
X011428Y006597D01*
X011351Y006597D01*
X011275Y006521D01*
X011275Y006367D01*
X011351Y006290D01*
X011735Y006290D02*
X011735Y006597D01*
X016954Y007190D02*
X016954Y007650D01*
X017185Y007650D01*
X017261Y007574D01*
X017261Y007420D01*
X017185Y007343D01*
X016954Y007343D01*
X017108Y007343D02*
X017261Y007190D01*
X017415Y007420D02*
X017722Y007420D01*
X017645Y007650D02*
X017415Y007420D01*
X017645Y007190D02*
X017645Y007650D01*
X018085Y007690D02*
X018085Y007230D01*
X018392Y007230D01*
X018546Y007230D02*
X018852Y007230D01*
X019006Y007230D02*
X019236Y007230D01*
X019313Y007307D01*
X019313Y007614D01*
X019236Y007690D01*
X019006Y007690D01*
X019006Y007230D01*
X018699Y007460D02*
X018546Y007460D01*
X018546Y007690D02*
X018546Y007230D01*
X019466Y007230D02*
X019773Y007537D01*
X019773Y007614D01*
X019696Y007690D01*
X019543Y007690D01*
X019466Y007614D01*
X018852Y007690D02*
X018546Y007690D01*
X019466Y007230D02*
X019773Y007230D01*
X017722Y008447D02*
X017645Y008370D01*
X017491Y008370D01*
X017415Y008447D01*
X017261Y008370D02*
X017108Y008523D01*
X017185Y008523D02*
X016954Y008523D01*
X016954Y008370D02*
X016954Y008830D01*
X017185Y008830D01*
X017261Y008754D01*
X017261Y008600D01*
X017185Y008523D01*
X017568Y008600D02*
X017645Y008600D01*
X017722Y008523D01*
X017722Y008447D01*
X017645Y008600D02*
X017722Y008677D01*
X017722Y008754D01*
X017645Y008830D01*
X017491Y008830D01*
X017415Y008754D01*
X018255Y008920D02*
X018255Y008460D01*
X018562Y008460D01*
X018716Y008460D02*
X019022Y008460D01*
X019176Y008460D02*
X019406Y008460D01*
X019483Y008537D01*
X019483Y008844D01*
X019406Y008920D01*
X019176Y008920D01*
X019176Y008460D01*
X018869Y008690D02*
X018716Y008690D01*
X018716Y008920D02*
X018716Y008460D01*
X018716Y008920D02*
X019022Y008920D01*
X019636Y008767D02*
X019790Y008920D01*
X019790Y008460D01*
X019943Y008460D02*
X019636Y008460D01*
D17*
X011394Y006515D02*
X011040Y006869D01*
X010528Y006869D01*
X009662Y006869D02*
X009150Y006869D01*
X008796Y006515D01*
X008796Y004271D01*
X009662Y004271D01*
X010528Y004271D02*
X011394Y004271D01*
X011394Y006515D01*
X010469Y006731D02*
X010534Y006708D01*
X010597Y006682D01*
X010658Y006652D01*
X010718Y006618D01*
X010776Y006582D01*
X010832Y006542D01*
X010885Y006499D01*
X010936Y006453D01*
X010984Y006404D01*
X011029Y006353D01*
X011072Y006299D01*
X011111Y006243D01*
X011147Y006185D01*
X011180Y006124D01*
X011209Y006062D01*
X011235Y005999D01*
X011257Y005934D01*
X011276Y005868D01*
X011290Y005801D01*
X011301Y005734D01*
X011308Y005665D01*
X011312Y005597D01*
X011311Y005528D01*
X011307Y005460D01*
X011298Y005392D01*
X011286Y005325D01*
X011271Y005258D01*
X011251Y005192D01*
X011228Y005128D01*
X011201Y005065D01*
X011170Y005003D01*
X011137Y004944D01*
X011100Y004886D01*
X011059Y004831D01*
X011016Y004778D01*
X010970Y004727D01*
X010921Y004679D01*
X010869Y004634D01*
X010815Y004592D01*
X010759Y004553D01*
X010700Y004517D01*
X010640Y004485D01*
X010578Y004456D01*
X010514Y004430D01*
X010449Y004409D01*
X012395Y003871D02*
X012395Y003253D01*
X012519Y003130D01*
X012765Y003130D01*
X012889Y003253D01*
X012889Y003871D01*
X013150Y003624D02*
X013397Y003871D01*
X013397Y003130D01*
X013150Y003130D02*
X013644Y003130D01*
X009721Y004409D02*
X009656Y004432D01*
X009593Y004458D01*
X009532Y004488D01*
X009472Y004522D01*
X009414Y004558D01*
X009358Y004598D01*
X009305Y004641D01*
X009254Y004687D01*
X009206Y004736D01*
X009161Y004787D01*
X009118Y004841D01*
X009079Y004897D01*
X009043Y004955D01*
X009010Y005016D01*
X008981Y005078D01*
X008955Y005141D01*
X008933Y005206D01*
X008914Y005272D01*
X008900Y005339D01*
X008889Y005406D01*
X008882Y005475D01*
X008878Y005543D01*
X008879Y005612D01*
X008883Y005680D01*
X008892Y005748D01*
X008904Y005815D01*
X008919Y005882D01*
X008939Y005948D01*
X008962Y006012D01*
X008989Y006075D01*
X009020Y006137D01*
X009053Y006196D01*
X009090Y006254D01*
X009131Y006309D01*
X009174Y006362D01*
X009220Y006413D01*
X009269Y006461D01*
X009321Y006506D01*
X009375Y006548D01*
X009431Y006587D01*
X009490Y006623D01*
X009550Y006655D01*
X009612Y006684D01*
X009676Y006710D01*
X009741Y006731D01*
X008160Y006549D02*
X008160Y002191D01*
X000140Y002191D01*
X000140Y006549D01*
X008160Y006549D01*
D18*
X019054Y007834D03*
X019054Y008306D03*
X019174Y009014D03*
X019174Y009486D03*
D19*
X019174Y009250D03*
X019054Y008070D03*
M02*
