G75*
G70*
%OFA0B0*%
%FSLAX24Y24*%
%IPPOS*%
%LPD*%
%AMOC8*
5,1,8,0,0,1.08239X$1,22.5*
%
%ADD10C,0.0000*%
%ADD11R,0.0260X0.0800*%
%ADD12OC8,0.0600*%
%ADD13R,0.0512X0.0591*%
%ADD14R,0.0591X0.0512*%
%ADD15R,0.0630X0.1378*%
%ADD16R,0.0580X0.0140*%
%ADD17C,0.0600*%
%ADD18R,0.0472X0.0472*%
%ADD19C,0.0560*%
%ADD20C,0.0100*%
%ADD21C,0.0060*%
%ADD22OC8,0.0356*%
%ADD23C,0.0070*%
%ADD24C,0.0160*%
%ADD25C,0.0240*%
D10*
X003055Y000150D02*
X003055Y010226D01*
X020925Y010226D01*
X020925Y000150D01*
X003055Y000150D01*
X003565Y002870D02*
X003567Y002920D01*
X003573Y002970D01*
X003583Y003019D01*
X003597Y003067D01*
X003614Y003114D01*
X003635Y003159D01*
X003660Y003203D01*
X003688Y003244D01*
X003720Y003283D01*
X003754Y003320D01*
X003791Y003354D01*
X003831Y003384D01*
X003873Y003411D01*
X003917Y003435D01*
X003963Y003456D01*
X004010Y003472D01*
X004058Y003485D01*
X004108Y003494D01*
X004157Y003499D01*
X004208Y003500D01*
X004258Y003497D01*
X004307Y003490D01*
X004356Y003479D01*
X004404Y003464D01*
X004450Y003446D01*
X004495Y003424D01*
X004538Y003398D01*
X004579Y003369D01*
X004618Y003337D01*
X004654Y003302D01*
X004686Y003264D01*
X004716Y003224D01*
X004743Y003181D01*
X004766Y003137D01*
X004785Y003091D01*
X004801Y003043D01*
X004813Y002994D01*
X004821Y002945D01*
X004825Y002895D01*
X004825Y002845D01*
X004821Y002795D01*
X004813Y002746D01*
X004801Y002697D01*
X004785Y002649D01*
X004766Y002603D01*
X004743Y002559D01*
X004716Y002516D01*
X004686Y002476D01*
X004654Y002438D01*
X004618Y002403D01*
X004579Y002371D01*
X004538Y002342D01*
X004495Y002316D01*
X004450Y002294D01*
X004404Y002276D01*
X004356Y002261D01*
X004307Y002250D01*
X004258Y002243D01*
X004208Y002240D01*
X004157Y002241D01*
X004108Y002246D01*
X004058Y002255D01*
X004010Y002268D01*
X003963Y002284D01*
X003917Y002305D01*
X003873Y002329D01*
X003831Y002356D01*
X003791Y002386D01*
X003754Y002420D01*
X003720Y002457D01*
X003688Y002496D01*
X003660Y002537D01*
X003635Y002581D01*
X003614Y002626D01*
X003597Y002673D01*
X003583Y002721D01*
X003573Y002770D01*
X003567Y002820D01*
X003565Y002870D01*
X003565Y005870D02*
X003567Y005920D01*
X003573Y005970D01*
X003583Y006019D01*
X003597Y006067D01*
X003614Y006114D01*
X003635Y006159D01*
X003660Y006203D01*
X003688Y006244D01*
X003720Y006283D01*
X003754Y006320D01*
X003791Y006354D01*
X003831Y006384D01*
X003873Y006411D01*
X003917Y006435D01*
X003963Y006456D01*
X004010Y006472D01*
X004058Y006485D01*
X004108Y006494D01*
X004157Y006499D01*
X004208Y006500D01*
X004258Y006497D01*
X004307Y006490D01*
X004356Y006479D01*
X004404Y006464D01*
X004450Y006446D01*
X004495Y006424D01*
X004538Y006398D01*
X004579Y006369D01*
X004618Y006337D01*
X004654Y006302D01*
X004686Y006264D01*
X004716Y006224D01*
X004743Y006181D01*
X004766Y006137D01*
X004785Y006091D01*
X004801Y006043D01*
X004813Y005994D01*
X004821Y005945D01*
X004825Y005895D01*
X004825Y005845D01*
X004821Y005795D01*
X004813Y005746D01*
X004801Y005697D01*
X004785Y005649D01*
X004766Y005603D01*
X004743Y005559D01*
X004716Y005516D01*
X004686Y005476D01*
X004654Y005438D01*
X004618Y005403D01*
X004579Y005371D01*
X004538Y005342D01*
X004495Y005316D01*
X004450Y005294D01*
X004404Y005276D01*
X004356Y005261D01*
X004307Y005250D01*
X004258Y005243D01*
X004208Y005240D01*
X004157Y005241D01*
X004108Y005246D01*
X004058Y005255D01*
X004010Y005268D01*
X003963Y005284D01*
X003917Y005305D01*
X003873Y005329D01*
X003831Y005356D01*
X003791Y005386D01*
X003754Y005420D01*
X003720Y005457D01*
X003688Y005496D01*
X003660Y005537D01*
X003635Y005581D01*
X003614Y005626D01*
X003597Y005673D01*
X003583Y005721D01*
X003573Y005770D01*
X003567Y005820D01*
X003565Y005870D01*
D11*
X015275Y005900D03*
X015775Y005900D03*
X016275Y005900D03*
X016775Y005900D03*
X017275Y005900D03*
X017775Y005900D03*
X018275Y005900D03*
X018275Y003480D03*
X017775Y003480D03*
X017275Y003480D03*
X016775Y003480D03*
X016275Y003480D03*
X015775Y003480D03*
X015275Y003480D03*
D12*
X014935Y008030D03*
X013935Y008030D03*
X012935Y008030D03*
X011935Y008030D03*
X010935Y008030D03*
X009935Y008030D03*
X008935Y008030D03*
X007935Y008030D03*
X006935Y008030D03*
X005935Y008030D03*
X004935Y008030D03*
X003935Y008030D03*
X003935Y009030D03*
X004935Y009030D03*
X005935Y009030D03*
X006935Y009030D03*
X007935Y009030D03*
X008935Y009030D03*
X009935Y009030D03*
X010935Y009030D03*
X011935Y009030D03*
X012935Y009030D03*
X013935Y009030D03*
X014935Y009030D03*
X015935Y009030D03*
X015935Y008030D03*
D13*
X017220Y008070D03*
X017890Y008070D03*
X017890Y009250D03*
X017220Y009250D03*
X015170Y006770D03*
X014500Y006770D03*
X013090Y004650D03*
X012420Y004650D03*
X012580Y002270D03*
X013250Y002270D03*
D14*
X012275Y005915D03*
X012275Y006585D03*
D15*
X010095Y006633D03*
X010095Y004507D03*
D16*
X011765Y003830D03*
X011765Y003580D03*
X011765Y003320D03*
X011765Y003070D03*
X014065Y003070D03*
X014065Y003320D03*
X014065Y003580D03*
X014065Y003830D03*
D17*
X016555Y001450D02*
X016555Y000850D01*
X017555Y000850D02*
X017555Y001450D01*
X018555Y001450D02*
X018555Y000850D01*
X019555Y000850D02*
X019555Y001450D01*
X019675Y004490D02*
X020275Y004490D01*
X020275Y005490D02*
X019675Y005490D01*
X019675Y006490D02*
X020275Y006490D01*
X006555Y001450D02*
X006555Y000850D01*
X005555Y000850D02*
X005555Y001450D01*
X004555Y001450D02*
X004555Y000850D01*
X003555Y000850D02*
X003555Y001450D01*
D18*
X018582Y008070D03*
X019409Y008070D03*
X019529Y009250D03*
X018702Y009250D03*
D19*
X007695Y004620D03*
X006695Y004120D03*
X007695Y003620D03*
X006695Y005120D03*
D20*
X006231Y005280D02*
X004792Y005280D01*
X004891Y005378D02*
X006272Y005378D01*
X006280Y005398D02*
X006205Y005217D01*
X006205Y005023D01*
X006280Y004842D01*
X006418Y004705D01*
X006598Y004630D01*
X006793Y004630D01*
X006973Y004705D01*
X007111Y004842D01*
X007185Y005023D01*
X007185Y005217D01*
X007111Y005398D01*
X006973Y005535D01*
X006793Y005610D01*
X006598Y005610D01*
X006418Y005535D01*
X006280Y005398D01*
X006359Y005477D02*
X004941Y005477D01*
X004907Y005394D02*
X005035Y005703D01*
X005035Y006037D01*
X004907Y006346D01*
X004671Y006582D01*
X004362Y006710D01*
X004028Y006710D01*
X003719Y006582D01*
X003483Y006346D01*
X003355Y006037D01*
X003355Y005703D01*
X003483Y005394D01*
X003719Y005158D01*
X004028Y005030D01*
X004362Y005030D01*
X004671Y005158D01*
X004907Y005394D01*
X004982Y005575D02*
X006513Y005575D01*
X006877Y005575D02*
X010815Y005575D01*
X010815Y005477D02*
X007032Y005477D01*
X007119Y005378D02*
X009665Y005378D01*
X009693Y005406D02*
X009570Y005283D01*
X009570Y003731D01*
X009693Y003608D01*
X010497Y003608D01*
X010620Y003731D01*
X010620Y004410D01*
X011955Y004410D01*
X011955Y004268D01*
X012078Y004145D01*
X012361Y004145D01*
X012775Y003731D01*
X012775Y003482D01*
X012812Y003394D01*
X012992Y003214D01*
X013059Y003147D01*
X013147Y003110D01*
X013565Y003110D01*
X013565Y002913D01*
X013647Y002831D01*
X013647Y002617D01*
X013645Y002623D01*
X013626Y002657D01*
X013598Y002685D01*
X013564Y002705D01*
X013525Y002715D01*
X013300Y002715D01*
X013300Y002320D01*
X013656Y002320D01*
X013656Y002521D01*
X013874Y002302D01*
X014196Y002302D01*
X014404Y002510D01*
X014686Y002510D01*
X014667Y002491D01*
X014667Y002169D01*
X014894Y001942D01*
X015216Y001942D01*
X015364Y002090D01*
X017116Y002090D01*
X017307Y001899D01*
X017266Y001882D01*
X017123Y001739D01*
X017055Y001576D01*
X016987Y001739D01*
X016844Y001882D01*
X016657Y001960D01*
X016454Y001960D01*
X016266Y001882D01*
X016123Y001739D01*
X016045Y001551D01*
X016045Y001390D01*
X013655Y001390D01*
X013200Y001845D01*
X013200Y002220D01*
X013300Y002220D01*
X013300Y002320D01*
X013200Y002320D01*
X013200Y002715D01*
X012983Y002715D01*
X012923Y002775D01*
X012399Y002775D01*
X012263Y002911D01*
X012265Y002913D01*
X012265Y003987D01*
X012142Y004110D01*
X011388Y004110D01*
X011265Y003987D01*
X011265Y002913D01*
X011388Y002790D01*
X011706Y002790D01*
X012106Y002390D01*
X007300Y002390D01*
X007300Y003049D01*
X007445Y003193D01*
X007598Y003130D01*
X007793Y003130D01*
X007973Y003205D01*
X008111Y003342D01*
X008185Y003523D01*
X008185Y003717D01*
X008111Y003898D01*
X007973Y004035D01*
X007793Y004110D01*
X007598Y004110D01*
X007418Y004035D01*
X007280Y003898D01*
X007205Y003717D01*
X007205Y003646D01*
X006847Y003289D01*
X006810Y003199D01*
X006810Y002244D01*
X006526Y001960D01*
X006454Y001960D01*
X006266Y001882D01*
X006123Y001739D01*
X006045Y001551D01*
X006045Y000749D01*
X006123Y000561D01*
X006266Y000418D01*
X006405Y000360D01*
X003705Y000360D01*
X003844Y000418D01*
X003987Y000561D01*
X004065Y000749D01*
X004065Y001551D01*
X003987Y001739D01*
X003844Y001882D01*
X003657Y001960D01*
X003454Y001960D01*
X003266Y001882D01*
X003265Y001881D01*
X003265Y010016D01*
X020715Y010016D01*
X020715Y006760D01*
X020707Y006779D01*
X020564Y006922D01*
X020377Y007000D01*
X019574Y007000D01*
X019386Y006922D01*
X019254Y006790D01*
X019191Y006853D01*
X019103Y006890D01*
X018282Y006890D01*
X018242Y006930D01*
X018121Y006980D01*
X017989Y006980D01*
X017868Y006930D01*
X017775Y006837D01*
X017725Y006716D01*
X017725Y006584D01*
X017756Y006510D01*
X017558Y006510D01*
X017525Y006477D01*
X017492Y006510D01*
X017058Y006510D01*
X017025Y006477D01*
X016992Y006510D01*
X016558Y006510D01*
X016525Y006477D01*
X016492Y006510D01*
X016058Y006510D01*
X016025Y006477D01*
X015992Y006510D01*
X015755Y006510D01*
X016843Y007599D01*
X016878Y007565D01*
X018233Y007565D01*
X018292Y007624D01*
X018905Y007624D01*
X019028Y007747D01*
X019028Y007793D01*
X019033Y007776D01*
X019052Y007742D01*
X019023Y007742D01*
X019052Y007742D02*
X019080Y007714D01*
X019114Y007694D01*
X019153Y007684D01*
X019359Y007684D01*
X019359Y008020D01*
X019459Y008020D01*
X019459Y008120D01*
X019795Y008120D01*
X019795Y008326D01*
X019785Y008364D01*
X019765Y008398D01*
X019737Y008426D01*
X019703Y008446D01*
X019664Y008456D01*
X019459Y008456D01*
X019459Y008120D01*
X019359Y008120D01*
X019359Y008456D01*
X019153Y008456D01*
X019114Y008446D01*
X019080Y008426D01*
X019052Y008398D01*
X019033Y008364D01*
X019028Y008347D01*
X019028Y008393D01*
X018905Y008516D01*
X018292Y008516D01*
X018233Y008575D01*
X017881Y008575D01*
X017885Y008584D01*
X017885Y008716D01*
X017873Y008745D01*
X018233Y008745D01*
X018335Y008847D01*
X018379Y008804D01*
X019025Y008804D01*
X019148Y008927D01*
X019148Y008973D01*
X019153Y008956D01*
X019172Y008922D01*
X019200Y008894D01*
X019234Y008874D01*
X019273Y008864D01*
X019479Y008864D01*
X019479Y009200D01*
X019579Y009200D01*
X019579Y009300D01*
X019915Y009300D01*
X019915Y009506D01*
X019905Y009544D01*
X019885Y009578D01*
X019857Y009606D01*
X019823Y009626D01*
X019784Y009636D01*
X019579Y009636D01*
X019579Y009300D01*
X019479Y009300D01*
X019479Y009636D01*
X019273Y009636D01*
X019234Y009626D01*
X019200Y009606D01*
X019172Y009578D01*
X019153Y009544D01*
X019148Y009527D01*
X019148Y009573D01*
X019025Y009696D01*
X018379Y009696D01*
X018335Y009653D01*
X018233Y009755D01*
X016878Y009755D01*
X016755Y009632D01*
X016755Y008868D01*
X016878Y008745D01*
X017121Y008745D01*
X017225Y008641D01*
X017225Y008584D01*
X017229Y008575D01*
X016878Y008575D01*
X016755Y008452D01*
X016755Y008189D01*
X015636Y007070D01*
X015636Y007152D01*
X015513Y007275D01*
X014827Y007275D01*
X014767Y007215D01*
X014550Y007215D01*
X014550Y006820D01*
X014450Y006820D01*
X014450Y006720D01*
X014095Y006720D01*
X014095Y006455D01*
X014105Y006417D01*
X014125Y006383D01*
X014152Y006355D01*
X014187Y006335D01*
X014225Y006325D01*
X014450Y006325D01*
X014450Y006720D01*
X014550Y006720D01*
X014550Y006325D01*
X014767Y006325D01*
X014815Y006276D01*
X014815Y006249D01*
X014456Y005890D01*
X013764Y005890D01*
X013883Y006009D01*
X013883Y006331D01*
X013735Y006479D01*
X013735Y007520D01*
X014146Y007520D01*
X014435Y007809D01*
X014724Y007520D01*
X015146Y007520D01*
X015445Y007819D01*
X015445Y008241D01*
X015156Y008530D01*
X015435Y008809D01*
X015724Y008520D01*
X016146Y008520D01*
X016445Y008819D01*
X016445Y009241D01*
X016146Y009540D01*
X015724Y009540D01*
X015435Y009251D01*
X015146Y009540D01*
X014724Y009540D01*
X014435Y009251D01*
X014146Y009540D01*
X013724Y009540D01*
X013425Y009241D01*
X013425Y008819D01*
X013714Y008530D01*
X013642Y008458D01*
X013639Y008466D01*
X013399Y008706D01*
X013331Y008773D01*
X013320Y008778D01*
X013385Y008844D01*
X013385Y008980D01*
X012985Y008980D01*
X012985Y009080D01*
X012885Y009080D01*
X012885Y008980D01*
X012485Y008980D01*
X012485Y008844D01*
X012519Y008810D01*
X012436Y008810D01*
X012445Y008819D01*
X012445Y009241D01*
X012146Y009540D01*
X011724Y009540D01*
X011435Y009251D01*
X011146Y009540D01*
X010724Y009540D01*
X010425Y009241D01*
X010425Y008819D01*
X010434Y008810D01*
X010352Y008810D01*
X010385Y008844D01*
X010385Y008980D01*
X009985Y008980D01*
X009985Y009080D01*
X009885Y009080D01*
X009885Y008980D01*
X009485Y008980D01*
X009485Y008844D01*
X009519Y008810D01*
X009495Y008810D01*
X009445Y008859D01*
X009445Y009241D01*
X009146Y009540D01*
X008724Y009540D01*
X008435Y009251D01*
X008146Y009540D01*
X007724Y009540D01*
X007435Y009251D01*
X007146Y009540D01*
X006724Y009540D01*
X006425Y009241D01*
X006425Y008819D01*
X006714Y008530D01*
X006435Y008251D01*
X006146Y008540D01*
X005724Y008540D01*
X005435Y008251D01*
X005156Y008530D01*
X005445Y008819D01*
X005445Y009241D01*
X005146Y009540D01*
X004724Y009540D01*
X004435Y009251D01*
X004146Y009540D01*
X003724Y009540D01*
X003425Y009241D01*
X003425Y008819D01*
X003714Y008530D01*
X003425Y008241D01*
X003425Y007819D01*
X003724Y007520D01*
X004146Y007520D01*
X004435Y007809D01*
X004724Y007520D01*
X005146Y007520D01*
X005435Y007809D01*
X005724Y007520D01*
X006146Y007520D01*
X006435Y007809D01*
X006724Y007520D01*
X007146Y007520D01*
X007445Y007819D01*
X007445Y008241D01*
X007156Y008530D01*
X007435Y008809D01*
X007724Y008520D01*
X008106Y008520D01*
X008155Y008471D01*
X008155Y008446D01*
X008122Y008480D01*
X007985Y008480D01*
X007985Y008080D01*
X007885Y008080D01*
X007885Y007980D01*
X007485Y007980D01*
X007485Y007844D01*
X007749Y007580D01*
X007885Y007580D01*
X007885Y007980D01*
X007985Y007980D01*
X007985Y007580D01*
X008122Y007580D01*
X008155Y007614D01*
X008155Y007079D01*
X008007Y006931D01*
X008007Y006609D01*
X008234Y006382D01*
X008556Y006382D01*
X008735Y006561D01*
X008775Y006463D01*
X008868Y006370D01*
X008989Y006320D01*
X009121Y006320D01*
X009242Y006370D01*
X009335Y006463D01*
X009385Y006584D01*
X009385Y006716D01*
X009335Y006837D01*
X009242Y006930D01*
X009180Y006955D01*
X009180Y007554D01*
X009435Y007809D01*
X009712Y007532D01*
X009693Y007532D01*
X009570Y007409D01*
X009570Y005857D01*
X009693Y005734D01*
X010497Y005734D01*
X010620Y005857D01*
X010620Y006410D01*
X011770Y006410D01*
X011770Y006390D01*
X011007Y006390D01*
X010919Y006353D01*
X010852Y006286D01*
X010815Y006198D01*
X010815Y004890D01*
X010620Y004890D01*
X010620Y005283D01*
X010497Y005406D01*
X009693Y005406D01*
X009570Y005280D02*
X007159Y005280D01*
X007185Y005181D02*
X009570Y005181D01*
X009570Y005083D02*
X007859Y005083D01*
X007793Y005110D02*
X007973Y005035D01*
X008111Y004898D01*
X008185Y004717D01*
X008185Y004523D01*
X008111Y004342D01*
X007973Y004205D01*
X007793Y004130D01*
X007598Y004130D01*
X007418Y004205D01*
X007280Y004342D01*
X007205Y004523D01*
X007205Y004717D01*
X007280Y004898D01*
X007418Y005035D01*
X007598Y005110D01*
X007793Y005110D01*
X007531Y005083D02*
X007185Y005083D01*
X007169Y004984D02*
X007366Y004984D01*
X007275Y004886D02*
X007128Y004886D01*
X007055Y004787D02*
X007234Y004787D01*
X007205Y004689D02*
X006934Y004689D01*
X007205Y004590D02*
X003265Y004590D01*
X003265Y004492D02*
X006477Y004492D01*
X006470Y004488D02*
X006415Y004448D01*
X006367Y004400D01*
X006327Y004345D01*
X006297Y004285D01*
X006276Y004221D01*
X006266Y004159D01*
X006657Y004159D01*
X006657Y004549D01*
X006594Y004539D01*
X006530Y004518D01*
X006470Y004488D01*
X006362Y004393D02*
X003265Y004393D01*
X003265Y004295D02*
X006301Y004295D01*
X006272Y004196D02*
X003265Y004196D01*
X003265Y004098D02*
X006657Y004098D01*
X006657Y004081D02*
X006266Y004081D01*
X006276Y004019D01*
X006297Y003955D01*
X006327Y003895D01*
X006367Y003840D01*
X006415Y003792D01*
X006470Y003752D01*
X006530Y003722D01*
X006594Y003701D01*
X006657Y003691D01*
X006657Y004081D01*
X006734Y004081D01*
X006734Y004159D01*
X006657Y004159D01*
X006657Y004081D01*
X006734Y004081D02*
X006734Y003691D01*
X006796Y003701D01*
X006860Y003722D01*
X006920Y003752D01*
X006975Y003792D01*
X007023Y003840D01*
X007063Y003895D01*
X007094Y003955D01*
X007115Y004019D01*
X007124Y004081D01*
X006734Y004081D01*
X006734Y004098D02*
X007567Y004098D01*
X007438Y004196D02*
X007118Y004196D01*
X007115Y004221D02*
X007094Y004285D01*
X007063Y004345D01*
X007023Y004400D01*
X006975Y004448D01*
X006920Y004488D01*
X006860Y004518D01*
X006796Y004539D01*
X006734Y004549D01*
X006734Y004159D01*
X007124Y004159D01*
X007115Y004221D01*
X007089Y004295D02*
X007328Y004295D01*
X007259Y004393D02*
X007028Y004393D01*
X006913Y004492D02*
X007218Y004492D01*
X006734Y004492D02*
X006657Y004492D01*
X006657Y004393D02*
X006734Y004393D01*
X006734Y004295D02*
X006657Y004295D01*
X006657Y004196D02*
X006734Y004196D01*
X006734Y003999D02*
X006657Y003999D01*
X006657Y003901D02*
X006734Y003901D01*
X006734Y003802D02*
X006657Y003802D01*
X006657Y003704D02*
X006734Y003704D01*
X006805Y003704D02*
X007205Y003704D01*
X007240Y003802D02*
X006985Y003802D01*
X007066Y003901D02*
X007283Y003901D01*
X007381Y003999D02*
X007108Y003999D01*
X006585Y003704D02*
X004378Y003704D01*
X004362Y003710D02*
X004028Y003710D01*
X003719Y003582D01*
X003483Y003346D01*
X003355Y003037D01*
X003355Y002703D01*
X003483Y002394D01*
X003719Y002158D01*
X004028Y002030D01*
X004362Y002030D01*
X004671Y002158D01*
X004907Y002394D01*
X005035Y002703D01*
X005035Y003037D01*
X004907Y003346D01*
X004671Y003582D01*
X004362Y003710D01*
X004615Y003605D02*
X007164Y003605D01*
X007065Y003507D02*
X004746Y003507D01*
X004845Y003408D02*
X006967Y003408D01*
X006868Y003310D02*
X004922Y003310D01*
X004963Y003211D02*
X006815Y003211D01*
X006810Y003113D02*
X005004Y003113D01*
X005035Y003014D02*
X006810Y003014D01*
X006810Y002916D02*
X005035Y002916D01*
X005035Y002817D02*
X006810Y002817D01*
X006810Y002719D02*
X005035Y002719D01*
X005001Y002620D02*
X006810Y002620D01*
X006810Y002522D02*
X004960Y002522D01*
X004919Y002423D02*
X006810Y002423D01*
X006810Y002325D02*
X004837Y002325D01*
X004739Y002226D02*
X006792Y002226D01*
X006693Y002128D02*
X004597Y002128D01*
X004605Y001898D02*
X004605Y001200D01*
X004505Y001200D01*
X004505Y001100D01*
X004105Y001100D01*
X004105Y000815D01*
X004116Y000745D01*
X004138Y000677D01*
X004170Y000614D01*
X004212Y000557D01*
X004262Y000507D01*
X004319Y000465D01*
X004382Y000433D01*
X004450Y000411D01*
X004505Y000402D01*
X004505Y001100D01*
X004605Y001100D01*
X004605Y000402D01*
X004660Y000411D01*
X004728Y000433D01*
X004791Y000465D01*
X004848Y000507D01*
X004898Y000557D01*
X004940Y000614D01*
X004972Y000677D01*
X004994Y000745D01*
X005005Y000815D01*
X005005Y001100D01*
X004605Y001100D01*
X004605Y001200D01*
X005005Y001200D01*
X005005Y001485D01*
X004994Y001555D01*
X004972Y001623D01*
X004940Y001686D01*
X004898Y001743D01*
X004848Y001793D01*
X004791Y001835D01*
X004728Y001867D01*
X004660Y001889D01*
X004605Y001898D01*
X004605Y001832D02*
X004505Y001832D01*
X004505Y001898D02*
X004450Y001889D01*
X004382Y001867D01*
X004319Y001835D01*
X004262Y001793D01*
X004212Y001743D01*
X004170Y001686D01*
X004138Y001623D01*
X004116Y001555D01*
X004105Y001485D01*
X004105Y001200D01*
X004505Y001200D01*
X004505Y001898D01*
X004315Y001832D02*
X003894Y001832D01*
X003990Y001734D02*
X004205Y001734D01*
X004144Y001635D02*
X004031Y001635D01*
X004065Y001537D02*
X004113Y001537D01*
X004105Y001438D02*
X004065Y001438D01*
X004065Y001340D02*
X004105Y001340D01*
X004105Y001241D02*
X004065Y001241D01*
X004065Y001143D02*
X004505Y001143D01*
X004505Y001241D02*
X004605Y001241D01*
X004605Y001143D02*
X005505Y001143D01*
X005505Y001100D02*
X005505Y001200D01*
X005105Y001200D01*
X005105Y001485D01*
X005116Y001555D01*
X005138Y001623D01*
X005170Y001686D01*
X005212Y001743D01*
X005262Y001793D01*
X005319Y001835D01*
X005382Y001867D01*
X005450Y001889D01*
X005505Y001898D01*
X005505Y001200D01*
X005605Y001200D01*
X005605Y001898D01*
X005660Y001889D01*
X005728Y001867D01*
X005791Y001835D01*
X005848Y001793D01*
X005898Y001743D01*
X005940Y001686D01*
X005972Y001623D01*
X005994Y001555D01*
X006005Y001485D01*
X006005Y001200D01*
X005605Y001200D01*
X005605Y001100D01*
X005605Y000402D01*
X005660Y000411D01*
X005728Y000433D01*
X005791Y000465D01*
X005848Y000507D01*
X005898Y000557D01*
X005940Y000614D01*
X005972Y000677D01*
X005994Y000745D01*
X006005Y000815D01*
X006005Y001100D01*
X005605Y001100D01*
X005505Y001100D01*
X005105Y001100D01*
X005105Y000815D01*
X005116Y000745D01*
X005138Y000677D01*
X005170Y000614D01*
X005212Y000557D01*
X005262Y000507D01*
X005319Y000465D01*
X005382Y000433D01*
X005450Y000411D01*
X005505Y000402D01*
X005505Y001100D01*
X005505Y001044D02*
X005605Y001044D01*
X005605Y000946D02*
X005505Y000946D01*
X005505Y000847D02*
X005605Y000847D01*
X005605Y000749D02*
X005505Y000749D01*
X005505Y000650D02*
X005605Y000650D01*
X005605Y000551D02*
X005505Y000551D01*
X005505Y000453D02*
X005605Y000453D01*
X005767Y000453D02*
X006231Y000453D01*
X006132Y000551D02*
X005893Y000551D01*
X005958Y000650D02*
X006086Y000650D01*
X006045Y000749D02*
X005995Y000749D01*
X006005Y000847D02*
X006045Y000847D01*
X006045Y000946D02*
X006005Y000946D01*
X006005Y001044D02*
X006045Y001044D01*
X006045Y001143D02*
X005605Y001143D01*
X005605Y001241D02*
X005505Y001241D01*
X005505Y001340D02*
X005605Y001340D01*
X005605Y001438D02*
X005505Y001438D01*
X005505Y001537D02*
X005605Y001537D01*
X005605Y001635D02*
X005505Y001635D01*
X005505Y001734D02*
X005605Y001734D01*
X005605Y001832D02*
X005505Y001832D01*
X005315Y001832D02*
X004795Y001832D01*
X004905Y001734D02*
X005205Y001734D01*
X005144Y001635D02*
X004966Y001635D01*
X004997Y001537D02*
X005113Y001537D01*
X005105Y001438D02*
X005005Y001438D01*
X005005Y001340D02*
X005105Y001340D01*
X005105Y001241D02*
X005005Y001241D01*
X005005Y001044D02*
X005105Y001044D01*
X005105Y000946D02*
X005005Y000946D01*
X005005Y000847D02*
X005105Y000847D01*
X005116Y000749D02*
X004995Y000749D01*
X004958Y000650D02*
X005152Y000650D01*
X005217Y000551D02*
X004893Y000551D01*
X004767Y000453D02*
X005343Y000453D01*
X004605Y000453D02*
X004505Y000453D01*
X004505Y000551D02*
X004605Y000551D01*
X004605Y000650D02*
X004505Y000650D01*
X004505Y000749D02*
X004605Y000749D01*
X004605Y000847D02*
X004505Y000847D01*
X004505Y000946D02*
X004605Y000946D01*
X004605Y001044D02*
X004505Y001044D01*
X004505Y001340D02*
X004605Y001340D01*
X004605Y001438D02*
X004505Y001438D01*
X004505Y001537D02*
X004605Y001537D01*
X004605Y001635D02*
X004505Y001635D01*
X004505Y001734D02*
X004605Y001734D01*
X003728Y001931D02*
X006382Y001931D01*
X006216Y001832D02*
X005795Y001832D01*
X005905Y001734D02*
X006121Y001734D01*
X006080Y001635D02*
X005966Y001635D01*
X005997Y001537D02*
X006045Y001537D01*
X006045Y001438D02*
X006005Y001438D01*
X006005Y001340D02*
X006045Y001340D01*
X006045Y001241D02*
X006005Y001241D01*
X006595Y002029D02*
X003265Y002029D01*
X003265Y001931D02*
X003382Y001931D01*
X003265Y002128D02*
X003793Y002128D01*
X003651Y002226D02*
X003265Y002226D01*
X003265Y002325D02*
X003553Y002325D01*
X003471Y002423D02*
X003265Y002423D01*
X003265Y002522D02*
X003430Y002522D01*
X003390Y002620D02*
X003265Y002620D01*
X003265Y002719D02*
X003355Y002719D01*
X003355Y002817D02*
X003265Y002817D01*
X003265Y002916D02*
X003355Y002916D01*
X003355Y003014D02*
X003265Y003014D01*
X003265Y003113D02*
X003386Y003113D01*
X003427Y003211D02*
X003265Y003211D01*
X003265Y003310D02*
X003468Y003310D01*
X003545Y003408D02*
X003265Y003408D01*
X003265Y003507D02*
X003644Y003507D01*
X003775Y003605D02*
X003265Y003605D01*
X003265Y003704D02*
X004013Y003704D01*
X003265Y003802D02*
X006405Y003802D01*
X006324Y003901D02*
X003265Y003901D01*
X003265Y003999D02*
X006282Y003999D01*
X006456Y004689D02*
X003265Y004689D01*
X003265Y004787D02*
X006335Y004787D01*
X006262Y004886D02*
X003265Y004886D01*
X003265Y004984D02*
X006221Y004984D01*
X006205Y005083D02*
X004489Y005083D01*
X004694Y005181D02*
X006205Y005181D01*
X005023Y005674D02*
X010815Y005674D01*
X010815Y005772D02*
X010535Y005772D01*
X010620Y005871D02*
X010815Y005871D01*
X010815Y005969D02*
X010620Y005969D01*
X010620Y006068D02*
X010815Y006068D01*
X010815Y006166D02*
X010620Y006166D01*
X010620Y006265D02*
X010843Y006265D01*
X010942Y006363D02*
X010620Y006363D01*
X009570Y006363D02*
X009225Y006363D01*
X009333Y006462D02*
X009570Y006462D01*
X009570Y006560D02*
X009375Y006560D01*
X009385Y006659D02*
X009570Y006659D01*
X009570Y006757D02*
X009368Y006757D01*
X009316Y006856D02*
X009570Y006856D01*
X009570Y006954D02*
X009183Y006954D01*
X009180Y007053D02*
X009570Y007053D01*
X009570Y007151D02*
X009180Y007151D01*
X009180Y007250D02*
X009570Y007250D01*
X009570Y007348D02*
X009180Y007348D01*
X009180Y007447D02*
X009608Y007447D01*
X009699Y007545D02*
X009180Y007545D01*
X009270Y007644D02*
X009600Y007644D01*
X009502Y007742D02*
X009368Y007742D01*
X008155Y007545D02*
X007171Y007545D01*
X007270Y007644D02*
X007685Y007644D01*
X007587Y007742D02*
X007368Y007742D01*
X007445Y007841D02*
X007488Y007841D01*
X007485Y007939D02*
X007445Y007939D01*
X007445Y008038D02*
X007885Y008038D01*
X007885Y008080D02*
X007485Y008080D01*
X007485Y008216D01*
X007749Y008480D01*
X007885Y008480D01*
X007885Y008080D01*
X007885Y008136D02*
X007985Y008136D01*
X007985Y008235D02*
X007885Y008235D01*
X007885Y008333D02*
X007985Y008333D01*
X007985Y008432D02*
X007885Y008432D01*
X007700Y008432D02*
X007255Y008432D01*
X007156Y008530D02*
X007714Y008530D01*
X007615Y008629D02*
X007255Y008629D01*
X007353Y008727D02*
X007517Y008727D01*
X007602Y008333D02*
X007353Y008333D01*
X007445Y008235D02*
X007503Y008235D01*
X007485Y008136D02*
X007445Y008136D01*
X007885Y007939D02*
X007985Y007939D01*
X007985Y007841D02*
X007885Y007841D01*
X007885Y007742D02*
X007985Y007742D01*
X007985Y007644D02*
X007885Y007644D01*
X008155Y007447D02*
X003265Y007447D01*
X003265Y007545D02*
X003699Y007545D01*
X003600Y007644D02*
X003265Y007644D01*
X003265Y007742D02*
X003502Y007742D01*
X003425Y007841D02*
X003265Y007841D01*
X003265Y007939D02*
X003425Y007939D01*
X003425Y008038D02*
X003265Y008038D01*
X003265Y008136D02*
X003425Y008136D01*
X003425Y008235D02*
X003265Y008235D01*
X003265Y008333D02*
X003517Y008333D01*
X003615Y008432D02*
X003265Y008432D01*
X003265Y008530D02*
X003714Y008530D01*
X003615Y008629D02*
X003265Y008629D01*
X003265Y008727D02*
X003517Y008727D01*
X003425Y008826D02*
X003265Y008826D01*
X003265Y008924D02*
X003425Y008924D01*
X003425Y009023D02*
X003265Y009023D01*
X003265Y009121D02*
X003425Y009121D01*
X003425Y009220D02*
X003265Y009220D01*
X003265Y009318D02*
X003502Y009318D01*
X003600Y009417D02*
X003265Y009417D01*
X003265Y009515D02*
X003699Y009515D01*
X003265Y009614D02*
X016755Y009614D01*
X016755Y009515D02*
X016171Y009515D01*
X016270Y009417D02*
X016755Y009417D01*
X016755Y009318D02*
X016368Y009318D01*
X016445Y009220D02*
X016755Y009220D01*
X016755Y009121D02*
X016445Y009121D01*
X016445Y009023D02*
X016755Y009023D01*
X016755Y008924D02*
X016445Y008924D01*
X016445Y008826D02*
X016797Y008826D01*
X017139Y008727D02*
X016353Y008727D01*
X016255Y008629D02*
X017225Y008629D01*
X016832Y008530D02*
X016156Y008530D01*
X016122Y008480D02*
X015985Y008480D01*
X015985Y008080D01*
X015885Y008080D01*
X015885Y007980D01*
X015485Y007980D01*
X015485Y007844D01*
X015749Y007580D01*
X015885Y007580D01*
X015885Y007980D01*
X015985Y007980D01*
X015985Y007580D01*
X016122Y007580D01*
X016385Y007844D01*
X016385Y007980D01*
X015985Y007980D01*
X015985Y008080D01*
X016385Y008080D01*
X016385Y008216D01*
X016122Y008480D01*
X016170Y008432D02*
X016755Y008432D01*
X016755Y008333D02*
X016268Y008333D01*
X016367Y008235D02*
X016755Y008235D01*
X016702Y008136D02*
X016385Y008136D01*
X016603Y008038D02*
X015985Y008038D01*
X015985Y008136D02*
X015885Y008136D01*
X015885Y008080D02*
X015885Y008480D01*
X015749Y008480D01*
X015485Y008216D01*
X015485Y008080D01*
X015885Y008080D01*
X015885Y008038D02*
X015445Y008038D01*
X015445Y008136D02*
X015485Y008136D01*
X015503Y008235D02*
X015445Y008235D01*
X015353Y008333D02*
X015602Y008333D01*
X015700Y008432D02*
X015255Y008432D01*
X015156Y008530D02*
X015714Y008530D01*
X015615Y008629D02*
X015255Y008629D01*
X015353Y008727D02*
X015517Y008727D01*
X015885Y008432D02*
X015985Y008432D01*
X015985Y008333D02*
X015885Y008333D01*
X015885Y008235D02*
X015985Y008235D01*
X015985Y007939D02*
X015885Y007939D01*
X015885Y007841D02*
X015985Y007841D01*
X015985Y007742D02*
X015885Y007742D01*
X015885Y007644D02*
X015985Y007644D01*
X016111Y007545D02*
X015171Y007545D01*
X015270Y007644D02*
X015685Y007644D01*
X015587Y007742D02*
X015368Y007742D01*
X015445Y007841D02*
X015488Y007841D01*
X015485Y007939D02*
X015445Y007939D01*
X016185Y007644D02*
X016209Y007644D01*
X016284Y007742D02*
X016308Y007742D01*
X016382Y007841D02*
X016406Y007841D01*
X016385Y007939D02*
X016505Y007939D01*
X016790Y007545D02*
X020715Y007545D01*
X020715Y007447D02*
X016691Y007447D01*
X016593Y007348D02*
X020715Y007348D01*
X020715Y007250D02*
X016494Y007250D01*
X016396Y007151D02*
X020715Y007151D01*
X020715Y007053D02*
X016297Y007053D01*
X016199Y006954D02*
X017927Y006954D01*
X017794Y006856D02*
X016100Y006856D01*
X016002Y006757D02*
X017742Y006757D01*
X017725Y006659D02*
X015903Y006659D01*
X015805Y006560D02*
X017735Y006560D01*
X018183Y006954D02*
X019463Y006954D01*
X019319Y006856D02*
X019186Y006856D01*
X018815Y006410D02*
X018592Y006410D01*
X018615Y006387D01*
X018615Y005413D01*
X018492Y005290D01*
X018058Y005290D01*
X018025Y005323D01*
X017992Y005290D01*
X017558Y005290D01*
X017525Y005323D01*
X017492Y005290D01*
X017058Y005290D01*
X017025Y005323D01*
X016992Y005290D01*
X016558Y005290D01*
X016525Y005323D01*
X016492Y005290D01*
X016364Y005290D01*
X016403Y005251D01*
X016403Y005210D01*
X017023Y005210D01*
X017111Y005173D01*
X017179Y005106D01*
X017979Y004306D01*
X018015Y004218D01*
X018015Y004067D01*
X018071Y004011D01*
X018087Y004020D01*
X018125Y004030D01*
X018260Y004030D01*
X018260Y003495D01*
X018290Y003495D01*
X018290Y004030D01*
X018425Y004030D01*
X018463Y004020D01*
X018497Y004000D01*
X018525Y003972D01*
X018545Y003938D01*
X018555Y003900D01*
X018555Y003495D01*
X018290Y003495D01*
X018290Y003465D01*
X018290Y002930D01*
X018425Y002930D01*
X018463Y002940D01*
X018497Y002960D01*
X018525Y002988D01*
X018545Y003022D01*
X018555Y003060D01*
X018555Y003465D01*
X018290Y003465D01*
X018260Y003465D01*
X018260Y002930D01*
X018125Y002930D01*
X018087Y002940D01*
X018071Y002949D01*
X017992Y002870D01*
X017558Y002870D01*
X017525Y002903D01*
X017492Y002870D01*
X017435Y002870D01*
X017179Y002614D01*
X017135Y002570D01*
X017263Y002570D01*
X017351Y002533D01*
X017711Y002173D01*
X017779Y002106D01*
X017815Y002018D01*
X017815Y001894D01*
X017844Y001882D01*
X017987Y001739D01*
X018055Y001576D01*
X018123Y001739D01*
X018266Y001882D01*
X018454Y001960D01*
X018657Y001960D01*
X018844Y001882D01*
X018987Y001739D01*
X019065Y001551D01*
X019065Y000749D01*
X018987Y000561D01*
X018844Y000418D01*
X018705Y000360D01*
X020715Y000360D01*
X020715Y004392D01*
X020714Y004385D01*
X020692Y004317D01*
X020660Y004254D01*
X020618Y004197D01*
X020568Y004147D01*
X020511Y004105D01*
X020448Y004073D01*
X020380Y004051D01*
X020311Y004040D01*
X020025Y004040D01*
X020025Y004440D01*
X019925Y004440D01*
X019227Y004440D01*
X019236Y004385D01*
X019258Y004317D01*
X019290Y004254D01*
X019332Y004197D01*
X019382Y004147D01*
X019439Y004105D01*
X019502Y004073D01*
X019570Y004051D01*
X019640Y004040D01*
X019925Y004040D01*
X019925Y004440D01*
X019925Y004540D01*
X019227Y004540D01*
X019236Y004595D01*
X019258Y004663D01*
X019290Y004726D01*
X019332Y004783D01*
X019382Y004833D01*
X019439Y004875D01*
X019502Y004907D01*
X019570Y004929D01*
X019640Y004940D01*
X019925Y004940D01*
X019925Y004540D01*
X020025Y004540D01*
X020025Y004940D01*
X020311Y004940D01*
X020380Y004929D01*
X020448Y004907D01*
X020511Y004875D01*
X020568Y004833D01*
X020618Y004783D01*
X020660Y004726D01*
X020692Y004663D01*
X020714Y004595D01*
X020715Y004588D01*
X020715Y005220D01*
X020707Y005201D01*
X020564Y005058D01*
X020377Y004980D01*
X019574Y004980D01*
X019386Y005058D01*
X019243Y005201D01*
X019165Y005389D01*
X019165Y005591D01*
X019197Y005669D01*
X018852Y006014D01*
X018815Y006102D01*
X018815Y006410D01*
X018815Y006363D02*
X018615Y006363D01*
X018615Y006265D02*
X018815Y006265D01*
X018815Y006166D02*
X018615Y006166D01*
X018615Y006068D02*
X018830Y006068D01*
X018897Y005969D02*
X018615Y005969D01*
X018615Y005871D02*
X018995Y005871D01*
X019094Y005772D02*
X018615Y005772D01*
X018615Y005674D02*
X019192Y005674D01*
X019165Y005575D02*
X018615Y005575D01*
X018615Y005477D02*
X019165Y005477D01*
X019169Y005378D02*
X018580Y005378D01*
X019210Y005280D02*
X016374Y005280D01*
X017093Y005181D02*
X019263Y005181D01*
X019361Y005083D02*
X017202Y005083D01*
X017301Y004984D02*
X019564Y004984D01*
X019460Y004886D02*
X017399Y004886D01*
X017498Y004787D02*
X019336Y004787D01*
X019271Y004689D02*
X017596Y004689D01*
X017695Y004590D02*
X019235Y004590D01*
X019235Y004393D02*
X017892Y004393D01*
X017983Y004295D02*
X019270Y004295D01*
X019333Y004196D02*
X018015Y004196D01*
X018015Y004098D02*
X019454Y004098D01*
X019925Y004098D02*
X020025Y004098D01*
X020025Y004196D02*
X019925Y004196D01*
X019925Y004295D02*
X020025Y004295D01*
X020025Y004393D02*
X019925Y004393D01*
X019925Y004492D02*
X017793Y004492D01*
X018260Y003999D02*
X018290Y003999D01*
X018290Y003901D02*
X018260Y003901D01*
X018260Y003802D02*
X018290Y003802D01*
X018290Y003704D02*
X018260Y003704D01*
X018260Y003605D02*
X018290Y003605D01*
X018290Y003507D02*
X018260Y003507D01*
X018260Y003408D02*
X018290Y003408D01*
X018290Y003310D02*
X018260Y003310D01*
X018260Y003211D02*
X018290Y003211D01*
X018290Y003113D02*
X018260Y003113D01*
X018260Y003014D02*
X018290Y003014D01*
X018540Y003014D02*
X020715Y003014D01*
X020715Y002916D02*
X018038Y002916D01*
X018555Y003113D02*
X020715Y003113D01*
X020715Y003211D02*
X018555Y003211D01*
X018555Y003310D02*
X020715Y003310D01*
X020715Y003408D02*
X018555Y003408D01*
X018555Y003507D02*
X020715Y003507D01*
X020715Y003605D02*
X018555Y003605D01*
X018555Y003704D02*
X020715Y003704D01*
X020715Y003802D02*
X018555Y003802D01*
X018555Y003901D02*
X020715Y003901D01*
X020715Y003999D02*
X018498Y003999D01*
X019925Y004590D02*
X020025Y004590D01*
X020025Y004689D02*
X019925Y004689D01*
X019925Y004787D02*
X020025Y004787D01*
X020025Y004886D02*
X019925Y004886D01*
X020386Y004984D02*
X020715Y004984D01*
X020715Y004886D02*
X020490Y004886D01*
X020615Y004787D02*
X020715Y004787D01*
X020715Y004689D02*
X020679Y004689D01*
X020715Y004590D02*
X020715Y004590D01*
X020715Y004295D02*
X020681Y004295D01*
X020715Y004196D02*
X020618Y004196D01*
X020715Y004098D02*
X020496Y004098D01*
X020589Y005083D02*
X020715Y005083D01*
X020715Y005181D02*
X020687Y005181D01*
X020631Y006856D02*
X020715Y006856D01*
X020715Y006954D02*
X020488Y006954D01*
X020715Y007644D02*
X018925Y007644D01*
X019359Y007742D02*
X019459Y007742D01*
X019459Y007684D02*
X019664Y007684D01*
X019703Y007694D01*
X019737Y007714D01*
X019765Y007742D01*
X020715Y007742D01*
X020715Y007841D02*
X019795Y007841D01*
X019795Y007814D02*
X019795Y008020D01*
X019459Y008020D01*
X019459Y007684D01*
X019459Y007841D02*
X019359Y007841D01*
X019359Y007939D02*
X019459Y007939D01*
X019459Y008038D02*
X020715Y008038D01*
X020715Y008136D02*
X019795Y008136D01*
X019795Y008235D02*
X020715Y008235D01*
X020715Y008333D02*
X019793Y008333D01*
X019728Y008432D02*
X020715Y008432D01*
X020715Y008530D02*
X018278Y008530D01*
X017885Y008629D02*
X020715Y008629D01*
X020715Y008727D02*
X017880Y008727D01*
X018313Y008826D02*
X018357Y008826D01*
X019047Y008826D02*
X020715Y008826D01*
X020715Y008924D02*
X019886Y008924D01*
X019885Y008922D02*
X019905Y008956D01*
X019915Y008994D01*
X019915Y009200D01*
X019579Y009200D01*
X019579Y008864D01*
X019784Y008864D01*
X019823Y008874D01*
X019857Y008894D01*
X019885Y008922D01*
X019915Y009023D02*
X020715Y009023D01*
X020715Y009121D02*
X019915Y009121D01*
X019579Y009121D02*
X019479Y009121D01*
X019479Y009023D02*
X019579Y009023D01*
X019579Y008924D02*
X019479Y008924D01*
X019171Y008924D02*
X019145Y008924D01*
X019579Y009220D02*
X020715Y009220D01*
X020715Y009318D02*
X019915Y009318D01*
X019915Y009417D02*
X020715Y009417D01*
X020715Y009515D02*
X019912Y009515D01*
X019844Y009614D02*
X020715Y009614D01*
X020715Y009712D02*
X018276Y009712D01*
X019108Y009614D02*
X019213Y009614D01*
X019479Y009614D02*
X019579Y009614D01*
X019579Y009515D02*
X019479Y009515D01*
X019479Y009417D02*
X019579Y009417D01*
X019579Y009318D02*
X019479Y009318D01*
X020715Y009811D02*
X003265Y009811D01*
X003265Y009909D02*
X020715Y009909D01*
X020715Y010008D02*
X003265Y010008D01*
X003265Y009712D02*
X016834Y009712D01*
X015699Y009515D02*
X015171Y009515D01*
X015270Y009417D02*
X015600Y009417D01*
X015502Y009318D02*
X015368Y009318D01*
X014699Y009515D02*
X014171Y009515D01*
X014270Y009417D02*
X014600Y009417D01*
X014502Y009318D02*
X014368Y009318D01*
X013699Y009515D02*
X012171Y009515D01*
X012270Y009417D02*
X012685Y009417D01*
X012749Y009480D02*
X012485Y009216D01*
X012485Y009080D01*
X012885Y009080D01*
X012885Y009480D01*
X012749Y009480D01*
X012885Y009417D02*
X012985Y009417D01*
X012985Y009480D02*
X012985Y009080D01*
X013385Y009080D01*
X013385Y009216D01*
X013122Y009480D01*
X012985Y009480D01*
X013185Y009417D02*
X013600Y009417D01*
X013502Y009318D02*
X013283Y009318D01*
X013382Y009220D02*
X013425Y009220D01*
X013425Y009121D02*
X013385Y009121D01*
X013425Y009023D02*
X012985Y009023D01*
X012985Y009121D02*
X012885Y009121D01*
X012885Y009023D02*
X012445Y009023D01*
X012445Y009121D02*
X012485Y009121D01*
X012488Y009220D02*
X012445Y009220D01*
X012368Y009318D02*
X012587Y009318D01*
X012885Y009318D02*
X012985Y009318D01*
X012985Y009220D02*
X012885Y009220D01*
X012485Y008924D02*
X012445Y008924D01*
X012445Y008826D02*
X012503Y008826D01*
X011502Y009318D02*
X011368Y009318D01*
X011270Y009417D02*
X011600Y009417D01*
X011699Y009515D02*
X011171Y009515D01*
X010699Y009515D02*
X009171Y009515D01*
X009270Y009417D02*
X009685Y009417D01*
X009749Y009480D02*
X009485Y009216D01*
X009485Y009080D01*
X009885Y009080D01*
X009885Y009480D01*
X009749Y009480D01*
X009885Y009417D02*
X009985Y009417D01*
X009985Y009480D02*
X010122Y009480D01*
X010385Y009216D01*
X010385Y009080D01*
X009985Y009080D01*
X009985Y009480D01*
X010185Y009417D02*
X010600Y009417D01*
X010502Y009318D02*
X010283Y009318D01*
X010382Y009220D02*
X010425Y009220D01*
X010425Y009121D02*
X010385Y009121D01*
X010425Y009023D02*
X009985Y009023D01*
X009985Y009121D02*
X009885Y009121D01*
X009885Y009023D02*
X009445Y009023D01*
X009445Y009121D02*
X009485Y009121D01*
X009488Y009220D02*
X009445Y009220D01*
X009368Y009318D02*
X009587Y009318D01*
X009885Y009318D02*
X009985Y009318D01*
X009985Y009220D02*
X009885Y009220D01*
X009485Y008924D02*
X009445Y008924D01*
X009479Y008826D02*
X009503Y008826D01*
X010367Y008826D02*
X010425Y008826D01*
X010425Y008924D02*
X010385Y008924D01*
X008699Y009515D02*
X008171Y009515D01*
X008270Y009417D02*
X008600Y009417D01*
X008502Y009318D02*
X008368Y009318D01*
X007699Y009515D02*
X007171Y009515D01*
X007270Y009417D02*
X007600Y009417D01*
X007502Y009318D02*
X007368Y009318D01*
X006699Y009515D02*
X005171Y009515D01*
X005270Y009417D02*
X005685Y009417D01*
X005749Y009480D02*
X005485Y009216D01*
X005485Y009080D01*
X005885Y009080D01*
X005885Y008980D01*
X005485Y008980D01*
X005485Y008844D01*
X005749Y008580D01*
X005885Y008580D01*
X005885Y008980D01*
X005985Y008980D01*
X005985Y008580D01*
X006122Y008580D01*
X006385Y008844D01*
X006385Y008980D01*
X005985Y008980D01*
X005985Y009080D01*
X005885Y009080D01*
X005885Y009480D01*
X005749Y009480D01*
X005885Y009417D02*
X005985Y009417D01*
X005985Y009480D02*
X006122Y009480D01*
X006385Y009216D01*
X006385Y009080D01*
X005985Y009080D01*
X005985Y009480D01*
X006185Y009417D02*
X006600Y009417D01*
X006502Y009318D02*
X006283Y009318D01*
X006382Y009220D02*
X006425Y009220D01*
X006425Y009121D02*
X006385Y009121D01*
X006425Y009023D02*
X005985Y009023D01*
X005985Y009121D02*
X005885Y009121D01*
X005885Y009023D02*
X005445Y009023D01*
X005445Y009121D02*
X005485Y009121D01*
X005488Y009220D02*
X005445Y009220D01*
X005368Y009318D02*
X005587Y009318D01*
X005885Y009318D02*
X005985Y009318D01*
X005985Y009220D02*
X005885Y009220D01*
X005885Y008924D02*
X005985Y008924D01*
X005985Y008826D02*
X005885Y008826D01*
X005885Y008727D02*
X005985Y008727D01*
X005985Y008629D02*
X005885Y008629D01*
X005700Y008629D02*
X005255Y008629D01*
X005353Y008727D02*
X005602Y008727D01*
X005503Y008826D02*
X005445Y008826D01*
X005445Y008924D02*
X005485Y008924D01*
X005714Y008530D02*
X005156Y008530D01*
X005255Y008432D02*
X005615Y008432D01*
X005517Y008333D02*
X005353Y008333D01*
X006156Y008530D02*
X006714Y008530D01*
X006615Y008432D02*
X006255Y008432D01*
X006353Y008333D02*
X006517Y008333D01*
X006615Y008629D02*
X006170Y008629D01*
X006269Y008727D02*
X006517Y008727D01*
X006425Y008826D02*
X006367Y008826D01*
X006385Y008924D02*
X006425Y008924D01*
X004699Y009515D02*
X004171Y009515D01*
X004270Y009417D02*
X004600Y009417D01*
X004502Y009318D02*
X004368Y009318D01*
X004368Y007742D02*
X004502Y007742D01*
X004600Y007644D02*
X004270Y007644D01*
X004171Y007545D02*
X004699Y007545D01*
X005171Y007545D02*
X005699Y007545D01*
X005600Y007644D02*
X005270Y007644D01*
X005368Y007742D02*
X005502Y007742D01*
X006171Y007545D02*
X006699Y007545D01*
X006600Y007644D02*
X006270Y007644D01*
X006368Y007742D02*
X006502Y007742D01*
X008155Y007348D02*
X003265Y007348D01*
X003265Y007250D02*
X008155Y007250D01*
X008155Y007151D02*
X003265Y007151D01*
X003265Y007053D02*
X008129Y007053D01*
X008030Y006954D02*
X003265Y006954D01*
X003265Y006856D02*
X008007Y006856D01*
X008007Y006757D02*
X003265Y006757D01*
X003265Y006659D02*
X003904Y006659D01*
X003697Y006560D02*
X003265Y006560D01*
X003265Y006462D02*
X003599Y006462D01*
X003500Y006363D02*
X003265Y006363D01*
X003265Y006265D02*
X003449Y006265D01*
X003409Y006166D02*
X003265Y006166D01*
X003265Y006068D02*
X003368Y006068D01*
X003355Y005969D02*
X003265Y005969D01*
X003265Y005871D02*
X003355Y005871D01*
X003355Y005772D02*
X003265Y005772D01*
X003265Y005674D02*
X003367Y005674D01*
X003408Y005575D02*
X003265Y005575D01*
X003265Y005477D02*
X003449Y005477D01*
X003499Y005378D02*
X003265Y005378D01*
X003265Y005280D02*
X003598Y005280D01*
X003696Y005181D02*
X003265Y005181D01*
X003265Y005083D02*
X003901Y005083D01*
X005035Y005772D02*
X009655Y005772D01*
X009570Y005871D02*
X005035Y005871D01*
X005035Y005969D02*
X009570Y005969D01*
X009570Y006068D02*
X005022Y006068D01*
X004982Y006166D02*
X009570Y006166D01*
X009570Y006265D02*
X004941Y006265D01*
X004890Y006363D02*
X008886Y006363D01*
X008777Y006462D02*
X008636Y006462D01*
X008734Y006560D02*
X008735Y006560D01*
X008155Y006462D02*
X004791Y006462D01*
X004693Y006560D02*
X008056Y006560D01*
X008007Y006659D02*
X004486Y006659D01*
X008024Y004984D02*
X009570Y004984D01*
X009570Y004886D02*
X008116Y004886D01*
X008156Y004787D02*
X009570Y004787D01*
X009570Y004689D02*
X008185Y004689D01*
X008185Y004590D02*
X009570Y004590D01*
X009570Y004492D02*
X008172Y004492D01*
X008131Y004393D02*
X009570Y004393D01*
X009570Y004295D02*
X008063Y004295D01*
X007952Y004196D02*
X009570Y004196D01*
X009570Y004098D02*
X007823Y004098D01*
X008009Y003999D02*
X009570Y003999D01*
X009570Y003901D02*
X008108Y003901D01*
X008150Y003802D02*
X009570Y003802D01*
X009598Y003704D02*
X008185Y003704D01*
X008185Y003605D02*
X011265Y003605D01*
X011265Y003507D02*
X008178Y003507D01*
X008138Y003408D02*
X011265Y003408D01*
X011265Y003310D02*
X008078Y003310D01*
X007979Y003211D02*
X011265Y003211D01*
X011265Y003113D02*
X007364Y003113D01*
X007300Y003014D02*
X011265Y003014D01*
X011265Y002916D02*
X007300Y002916D01*
X007300Y002817D02*
X011361Y002817D01*
X011777Y002719D02*
X007300Y002719D01*
X007300Y002620D02*
X011876Y002620D01*
X011974Y002522D02*
X007300Y002522D01*
X007300Y002423D02*
X012073Y002423D01*
X012358Y002817D02*
X013647Y002817D01*
X013647Y002719D02*
X012980Y002719D01*
X013200Y002620D02*
X013300Y002620D01*
X013300Y002522D02*
X013200Y002522D01*
X013200Y002423D02*
X013300Y002423D01*
X013300Y002325D02*
X013200Y002325D01*
X013300Y002226D02*
X014667Y002226D01*
X014667Y002325D02*
X014218Y002325D01*
X014317Y002423D02*
X014667Y002423D01*
X014709Y002128D02*
X013656Y002128D01*
X013656Y002220D02*
X013300Y002220D01*
X013300Y001825D01*
X013525Y001825D01*
X013564Y001835D01*
X013598Y001855D01*
X013626Y001883D01*
X013645Y001917D01*
X013656Y001955D01*
X013656Y002220D01*
X013656Y002325D02*
X013852Y002325D01*
X013753Y002423D02*
X013656Y002423D01*
X013646Y002620D02*
X013647Y002620D01*
X013565Y002916D02*
X012265Y002916D01*
X012265Y003014D02*
X013565Y003014D01*
X013141Y003113D02*
X012265Y003113D01*
X012265Y003211D02*
X012995Y003211D01*
X012896Y003310D02*
X012265Y003310D01*
X012265Y003408D02*
X012806Y003408D01*
X012775Y003507D02*
X012265Y003507D01*
X012265Y003605D02*
X012775Y003605D01*
X012775Y003704D02*
X012265Y003704D01*
X012265Y003802D02*
X012704Y003802D01*
X012605Y003901D02*
X012265Y003901D01*
X012253Y003999D02*
X012507Y003999D01*
X012408Y004098D02*
X012155Y004098D01*
X012026Y004196D02*
X010620Y004196D01*
X010620Y004098D02*
X011376Y004098D01*
X011277Y003999D02*
X010620Y003999D01*
X010620Y003901D02*
X011265Y003901D01*
X011265Y003802D02*
X010620Y003802D01*
X010593Y003704D02*
X011265Y003704D01*
X010620Y004295D02*
X011955Y004295D01*
X011955Y004393D02*
X010620Y004393D01*
X010620Y004984D02*
X010815Y004984D01*
X010815Y005083D02*
X010620Y005083D01*
X010620Y005181D02*
X010815Y005181D01*
X010815Y005280D02*
X010620Y005280D01*
X010525Y005378D02*
X010815Y005378D01*
X013040Y004600D02*
X013140Y004600D01*
X013140Y004700D01*
X013496Y004700D01*
X013496Y004850D01*
X014356Y004850D01*
X014995Y004211D01*
X014995Y004027D01*
X014935Y003967D01*
X014935Y003899D01*
X014916Y003918D01*
X014594Y003918D01*
X014505Y003829D01*
X014505Y003830D01*
X014505Y003920D01*
X014495Y003958D01*
X014475Y003992D01*
X014447Y004020D01*
X014413Y004040D01*
X014375Y004050D01*
X014065Y004050D01*
X013755Y004050D01*
X013717Y004040D01*
X013683Y004020D01*
X013655Y003992D01*
X013635Y003958D01*
X013625Y003920D01*
X013625Y003830D01*
X013658Y003830D01*
X013625Y003830D01*
X013625Y003797D01*
X013565Y003737D01*
X013565Y003590D01*
X013295Y003590D01*
X013255Y003629D01*
X013255Y003878D01*
X013219Y003966D01*
X013151Y004033D01*
X012980Y004205D01*
X013040Y004205D01*
X013040Y004600D01*
X013040Y004590D02*
X013140Y004590D01*
X013140Y004600D02*
X013140Y004205D01*
X013365Y004205D01*
X013404Y004215D01*
X013438Y004235D01*
X013466Y004263D01*
X013485Y004297D01*
X013496Y004335D01*
X013496Y004600D01*
X013140Y004600D01*
X013140Y004689D02*
X014517Y004689D01*
X014419Y004787D02*
X013496Y004787D01*
X013496Y004590D02*
X014616Y004590D01*
X014714Y004492D02*
X013496Y004492D01*
X013496Y004393D02*
X014813Y004393D01*
X014911Y004295D02*
X013484Y004295D01*
X013140Y004295D02*
X013040Y004295D01*
X013040Y004393D02*
X013140Y004393D01*
X013140Y004492D02*
X013040Y004492D01*
X012989Y004196D02*
X014995Y004196D01*
X014995Y004098D02*
X013087Y004098D01*
X013186Y003999D02*
X013662Y003999D01*
X013625Y003901D02*
X013246Y003901D01*
X013255Y003802D02*
X013625Y003802D01*
X013658Y003830D02*
X013658Y003830D01*
X013565Y003704D02*
X013255Y003704D01*
X013280Y003605D02*
X013565Y003605D01*
X014065Y003860D02*
X014065Y004050D01*
X014065Y003860D01*
X014065Y003860D01*
X014065Y003901D02*
X014065Y003901D01*
X014065Y003999D02*
X014065Y003999D01*
X014468Y003999D02*
X014967Y003999D01*
X014933Y003901D02*
X014935Y003901D01*
X014577Y003901D02*
X014505Y003901D01*
X014505Y003830D02*
X014472Y003830D01*
X014472Y003830D01*
X014505Y003830D01*
X017185Y002620D02*
X020715Y002620D01*
X020715Y002522D02*
X017363Y002522D01*
X017462Y002423D02*
X020715Y002423D01*
X020715Y002325D02*
X017560Y002325D01*
X017659Y002226D02*
X020715Y002226D01*
X020715Y002128D02*
X017757Y002128D01*
X017810Y002029D02*
X020715Y002029D01*
X020715Y001931D02*
X018728Y001931D01*
X018894Y001832D02*
X019315Y001832D01*
X019319Y001835D02*
X019262Y001793D01*
X019212Y001743D01*
X019170Y001686D01*
X019138Y001623D01*
X019116Y001555D01*
X019105Y001485D01*
X019105Y001200D01*
X019505Y001200D01*
X019505Y001100D01*
X019105Y001100D01*
X019105Y000815D01*
X019116Y000745D01*
X019138Y000677D01*
X019170Y000614D01*
X019212Y000557D01*
X019262Y000507D01*
X019319Y000465D01*
X019382Y000433D01*
X019450Y000411D01*
X019505Y000402D01*
X019505Y001100D01*
X019605Y001100D01*
X019605Y000402D01*
X019660Y000411D01*
X019728Y000433D01*
X019791Y000465D01*
X019848Y000507D01*
X019898Y000557D01*
X019940Y000614D01*
X019972Y000677D01*
X019994Y000745D01*
X020005Y000815D01*
X020005Y001100D01*
X019605Y001100D01*
X019605Y001200D01*
X019505Y001200D01*
X019505Y001898D01*
X019450Y001889D01*
X019382Y001867D01*
X019319Y001835D01*
X019205Y001734D02*
X018990Y001734D01*
X019031Y001635D02*
X019144Y001635D01*
X019113Y001537D02*
X019065Y001537D01*
X019065Y001438D02*
X019105Y001438D01*
X019105Y001340D02*
X019065Y001340D01*
X019065Y001241D02*
X019105Y001241D01*
X019065Y001143D02*
X019505Y001143D01*
X019505Y001241D02*
X019605Y001241D01*
X019605Y001200D02*
X019605Y001898D01*
X019660Y001889D01*
X019728Y001867D01*
X019791Y001835D01*
X019848Y001793D01*
X019898Y001743D01*
X019940Y001686D01*
X019972Y001623D01*
X019994Y001555D01*
X020005Y001485D01*
X020005Y001200D01*
X019605Y001200D01*
X019605Y001143D02*
X020715Y001143D01*
X020715Y001241D02*
X020005Y001241D01*
X020005Y001340D02*
X020715Y001340D01*
X020715Y001438D02*
X020005Y001438D01*
X019997Y001537D02*
X020715Y001537D01*
X020715Y001635D02*
X019966Y001635D01*
X019905Y001734D02*
X020715Y001734D01*
X020715Y001832D02*
X019795Y001832D01*
X019605Y001832D02*
X019505Y001832D01*
X019505Y001734D02*
X019605Y001734D01*
X019605Y001635D02*
X019505Y001635D01*
X019505Y001537D02*
X019605Y001537D01*
X019605Y001438D02*
X019505Y001438D01*
X019505Y001340D02*
X019605Y001340D01*
X019605Y001044D02*
X019505Y001044D01*
X019505Y000946D02*
X019605Y000946D01*
X019605Y000847D02*
X019505Y000847D01*
X019505Y000749D02*
X019605Y000749D01*
X019605Y000650D02*
X019505Y000650D01*
X019505Y000551D02*
X019605Y000551D01*
X019605Y000453D02*
X019505Y000453D01*
X019343Y000453D02*
X018879Y000453D01*
X018978Y000551D02*
X019217Y000551D01*
X019152Y000650D02*
X019024Y000650D01*
X019065Y000749D02*
X019116Y000749D01*
X019105Y000847D02*
X019065Y000847D01*
X019065Y000946D02*
X019105Y000946D01*
X019105Y001044D02*
X019065Y001044D01*
X020005Y001044D02*
X020715Y001044D01*
X020715Y000946D02*
X020005Y000946D01*
X020005Y000847D02*
X020715Y000847D01*
X020715Y000749D02*
X019995Y000749D01*
X019958Y000650D02*
X020715Y000650D01*
X020715Y000551D02*
X019893Y000551D01*
X019767Y000453D02*
X020715Y000453D01*
X018080Y001635D02*
X018031Y001635D01*
X017990Y001734D02*
X018121Y001734D01*
X018216Y001832D02*
X017894Y001832D01*
X017815Y001931D02*
X018382Y001931D01*
X017275Y001931D02*
X016728Y001931D01*
X016894Y001832D02*
X017216Y001832D01*
X017121Y001734D02*
X016990Y001734D01*
X017031Y001635D02*
X017080Y001635D01*
X016382Y001931D02*
X013649Y001931D01*
X013656Y002029D02*
X014807Y002029D01*
X015303Y002029D02*
X017177Y002029D01*
X016216Y001832D02*
X013553Y001832D01*
X013300Y001832D02*
X013213Y001832D01*
X013200Y001931D02*
X013300Y001931D01*
X013300Y002029D02*
X013200Y002029D01*
X013200Y002128D02*
X013300Y002128D01*
X013311Y001734D02*
X016121Y001734D01*
X016080Y001635D02*
X013410Y001635D01*
X013508Y001537D02*
X016045Y001537D01*
X016045Y001438D02*
X013607Y001438D01*
X017283Y002719D02*
X020715Y002719D01*
X020715Y002817D02*
X017382Y002817D01*
X014535Y005969D02*
X013843Y005969D01*
X013883Y006068D02*
X014633Y006068D01*
X014732Y006166D02*
X013883Y006166D01*
X013883Y006265D02*
X014815Y006265D01*
X014550Y006363D02*
X014450Y006363D01*
X014450Y006462D02*
X014550Y006462D01*
X014550Y006560D02*
X014450Y006560D01*
X014450Y006659D02*
X014550Y006659D01*
X014450Y006757D02*
X013735Y006757D01*
X013735Y006659D02*
X014095Y006659D01*
X014095Y006560D02*
X013735Y006560D01*
X013752Y006462D02*
X014095Y006462D01*
X014144Y006363D02*
X013851Y006363D01*
X014095Y006820D02*
X014450Y006820D01*
X014450Y007215D01*
X014225Y007215D01*
X014187Y007205D01*
X014152Y007185D01*
X014125Y007157D01*
X014105Y007123D01*
X014095Y007085D01*
X014095Y006820D01*
X014095Y006856D02*
X013735Y006856D01*
X013735Y006954D02*
X014095Y006954D01*
X014095Y007053D02*
X013735Y007053D01*
X013735Y007151D02*
X014121Y007151D01*
X014450Y007151D02*
X014550Y007151D01*
X014550Y007053D02*
X014450Y007053D01*
X014450Y006954D02*
X014550Y006954D01*
X014550Y006856D02*
X014450Y006856D01*
X014801Y007250D02*
X013735Y007250D01*
X013735Y007348D02*
X015914Y007348D01*
X016012Y007447D02*
X013735Y007447D01*
X014171Y007545D02*
X014699Y007545D01*
X014600Y007644D02*
X014270Y007644D01*
X014368Y007742D02*
X014502Y007742D01*
X015538Y007250D02*
X015815Y007250D01*
X015717Y007151D02*
X015636Y007151D01*
X013714Y008530D02*
X013575Y008530D01*
X013615Y008629D02*
X013476Y008629D01*
X013517Y008727D02*
X013378Y008727D01*
X013367Y008826D02*
X013425Y008826D01*
X013425Y008924D02*
X013385Y008924D01*
X018990Y008432D02*
X019089Y008432D01*
X019359Y008432D02*
X019459Y008432D01*
X019459Y008333D02*
X019359Y008333D01*
X019359Y008235D02*
X019459Y008235D01*
X019459Y008136D02*
X019359Y008136D01*
X019795Y007939D02*
X020715Y007939D01*
X019795Y007814D02*
X019785Y007776D01*
X019765Y007742D01*
X004343Y000453D02*
X003879Y000453D01*
X003978Y000551D02*
X004217Y000551D01*
X004152Y000650D02*
X004024Y000650D01*
X004065Y000749D02*
X004116Y000749D01*
X004105Y000847D02*
X004065Y000847D01*
X004065Y000946D02*
X004105Y000946D01*
X004105Y001044D02*
X004065Y001044D01*
D21*
X006555Y001150D02*
X006555Y001650D01*
X007055Y002150D01*
X012555Y002150D01*
X012580Y002270D01*
X012565Y002270D01*
X011765Y003070D01*
X013015Y003530D02*
X013195Y003350D01*
X014035Y003350D01*
X014065Y003320D01*
X014065Y003070D02*
X014865Y003070D01*
X015275Y003480D01*
X015235Y003520D01*
X015235Y004310D01*
X014455Y005090D01*
X013195Y005090D01*
X012835Y005450D01*
X012835Y006230D01*
X012480Y006585D01*
X012275Y006585D01*
X012055Y006650D01*
X010055Y006650D01*
X010095Y006633D01*
X011055Y006150D02*
X011055Y004650D01*
X012420Y004650D01*
X012555Y004650D01*
X012555Y004290D01*
X013015Y003830D01*
X013015Y003530D01*
X014065Y003580D02*
X014705Y003580D01*
X014755Y003530D01*
X014065Y003830D02*
X014065Y004340D01*
X014095Y004370D01*
X014815Y005450D02*
X015535Y004730D01*
X015895Y004730D01*
X016775Y003850D01*
X016775Y003480D01*
X017275Y003480D02*
X017275Y003050D01*
X016975Y002750D01*
X014095Y002750D01*
X014035Y002690D01*
X015055Y002330D02*
X017215Y002330D01*
X017575Y001970D01*
X017575Y001170D01*
X017555Y001150D01*
X018555Y001150D01*
X016555Y001150D02*
X013555Y001150D01*
X012555Y002150D01*
X010095Y004507D02*
X010055Y004650D01*
X011055Y004650D01*
X013055Y005650D02*
X013055Y006650D01*
X012055Y007650D01*
X013435Y007610D02*
X013435Y008330D01*
X013195Y008570D01*
X009395Y008570D01*
X008935Y009030D01*
X008395Y008570D02*
X007935Y009030D01*
X008395Y008570D02*
X008395Y006770D01*
X011055Y006150D02*
X012055Y006150D01*
X012275Y005915D01*
X013055Y005650D02*
X014555Y005650D01*
X015055Y006150D01*
X015055Y006650D01*
X015170Y006770D01*
X015055Y006650D02*
X015555Y006650D01*
X017055Y008150D01*
X017220Y008070D01*
X017890Y008070D02*
X018055Y008150D01*
X018555Y008150D01*
X018582Y008070D01*
X017555Y008650D02*
X017055Y009150D01*
X017220Y009250D01*
X017890Y009250D02*
X018055Y009150D01*
X018555Y009150D01*
X018702Y009250D01*
X019055Y006650D02*
X018055Y006650D01*
X019055Y006650D02*
X019055Y006150D01*
X019555Y005650D01*
X019975Y005490D01*
X017775Y004170D02*
X016975Y004970D01*
X016135Y004970D01*
X016015Y005090D01*
X017775Y004170D02*
X017775Y003480D01*
X013495Y006170D02*
X013495Y007550D01*
X013435Y007610D01*
D22*
X013495Y006170D03*
X014815Y005450D03*
X016015Y005090D03*
X014095Y004370D03*
X014755Y003530D03*
X014035Y002690D03*
X015055Y002330D03*
X008395Y006770D03*
D23*
X008935Y006770D02*
X009055Y006650D01*
X008935Y006770D02*
X008935Y008030D01*
X011935Y008030D02*
X011935Y007770D01*
X012055Y007650D01*
X007695Y003620D02*
X007525Y003620D01*
X007055Y003150D01*
X007055Y002150D01*
D24*
X015775Y003480D02*
X016275Y003480D01*
D25*
X018055Y006650D03*
X017555Y008650D03*
X009055Y006650D03*
M02*
