%
M48
M72
T01C0.0120
T02C0.0236
T03C0.0354
T04C0.0400
T05C0.1260
%
T01
X17555Y8650
X9055Y6650
X18055Y6650
T02
X14095Y4370
X14755Y3530
X15055Y2330
X14815Y5450
X13495Y6170
X14035Y2690
X16015Y5090
X8395Y6770
T03
X6695Y5120
X7695Y4620
X6695Y4120
X7695Y3620
T04
X3935Y8030
X3935Y9030
X4935Y8030
X4935Y9030
X5935Y8030
X5935Y9030
X6935Y8030
X6935Y9030
X7935Y8030
X7935Y9030
X8935Y8030
X8935Y9030
X9935Y8030
X9935Y9030
X10935Y8030
X10935Y9030
X11935Y8030
X11935Y9030
X12935Y8030
X12935Y9030
X13935Y8030
X13935Y9030
X14935Y8030
X14935Y9030
X15935Y8030
X15935Y9030
X3555Y1150
X4555Y1150
X5555Y1150
X6555Y1150
X16555Y1150
X17555Y1150
X18555Y1150
X19555Y1150
X19975Y4490
X19975Y5490
X19975Y6490
T05
X4195Y5870
X4195Y2870
M30
