G75*
G70*
%OFA0B0*%
%FSLAX24Y24*%
%IPPOS*%
%LPD*%
%AMOC8*
5,1,8,0,0,1.08239X$1,22.5*
%
%ADD10C,0.0000*%
%ADD11R,0.0800X0.0260*%
%ADD12C,0.0600*%
%ADD13R,0.0354X0.0276*%
%ADD14R,0.0984X0.1142*%
%ADD15R,0.0580X0.0140*%
%ADD16C,0.0160*%
%ADD17C,0.0100*%
%ADD18C,0.0356*%
%ADD19C,0.0120*%
D10*
X000267Y000150D02*
X000267Y012146D01*
X017137Y012146D01*
X017137Y000150D01*
X000267Y000150D01*
D11*
X005057Y001650D03*
X005057Y002150D03*
X005057Y002650D03*
X005057Y003150D03*
X005057Y003650D03*
X005057Y004150D03*
X005057Y004650D03*
X007477Y004650D03*
X007477Y004150D03*
X007477Y003650D03*
X007477Y003150D03*
X007477Y002650D03*
X007477Y002150D03*
X007477Y001650D03*
D12*
X010467Y001150D02*
X011067Y001150D01*
X011067Y002150D02*
X010467Y002150D01*
X010467Y003150D02*
X011067Y003150D01*
X011067Y004150D02*
X010467Y004150D01*
X010467Y005150D02*
X011067Y005150D01*
X013967Y004150D02*
X014567Y004150D01*
X014567Y003150D02*
X013967Y003150D01*
X013967Y002150D02*
X014567Y002150D01*
X014267Y010350D02*
X014267Y010950D01*
X013267Y010950D02*
X013267Y010350D01*
X015267Y010350D02*
X015267Y010950D01*
X016267Y010950D02*
X016267Y010350D01*
X004267Y010350D02*
X004267Y010950D01*
X003267Y010950D02*
X003267Y010350D01*
X002267Y010350D02*
X002267Y010950D01*
X001267Y010950D02*
X001267Y010350D01*
D13*
X002767Y006906D03*
X002767Y006394D03*
X003767Y003906D03*
X003767Y003394D03*
D14*
X001767Y004430D03*
X001767Y001870D03*
D15*
X004117Y007270D03*
X004117Y007520D03*
X004117Y007780D03*
X004117Y008030D03*
X006417Y008030D03*
X006417Y007780D03*
X006417Y007520D03*
X006417Y007270D03*
D16*
X006417Y008030D02*
X004267Y010180D01*
X004267Y010650D01*
X004117Y008030D02*
X001887Y008030D01*
X001267Y007410D01*
X001267Y006150D01*
X001767Y005650D01*
X001767Y004430D01*
X001487Y004430D01*
X001767Y004430D02*
X003767Y004430D01*
X003767Y004650D01*
X005057Y004650D01*
X005057Y004150D02*
X005057Y003650D01*
X005057Y003150D02*
X005767Y003150D01*
X006267Y003650D01*
X006267Y005150D01*
X010767Y005150D01*
X011767Y004650D02*
X011767Y010150D01*
X012767Y010150D01*
X013267Y010650D01*
X014267Y010650D02*
X015267Y010650D01*
X014267Y010650D02*
X014267Y011150D01*
X013767Y011650D01*
X011767Y011650D01*
X011267Y011150D01*
X011267Y007150D01*
X010267Y006150D01*
X005767Y006150D01*
X005267Y006650D01*
X005267Y007150D01*
X004117Y007270D02*
X002767Y007270D01*
X002767Y006906D01*
X003767Y004430D02*
X003767Y003906D01*
X007477Y004650D02*
X008767Y004650D01*
X008767Y002150D01*
X009767Y001150D01*
X010767Y001150D01*
X010767Y004150D02*
X011267Y004150D01*
X011767Y004650D01*
D17*
X011267Y004150D02*
X014267Y004150D01*
X014267Y003150D02*
X010767Y003150D01*
X005057Y001650D02*
X004767Y001650D01*
X004267Y001150D01*
X003267Y002150D02*
X003767Y002650D01*
X003767Y003394D01*
X003267Y002150D02*
X002046Y002150D01*
X001767Y001870D01*
X003267Y005650D02*
X002767Y006150D01*
X002767Y006394D01*
X002523Y006394D01*
X002267Y006650D01*
X002267Y007650D01*
X002397Y007780D01*
X004117Y007780D01*
X003511Y006906D02*
X003767Y006650D01*
X003511Y006906D02*
X002767Y006906D01*
D18*
X003767Y006650D03*
X003267Y005650D03*
X003267Y002150D03*
X004267Y001150D03*
D19*
X005267Y007150D02*
X005265Y007186D01*
X005260Y007222D01*
X005251Y007257D01*
X005239Y007292D01*
X005223Y007324D01*
X005205Y007356D01*
X005183Y007385D01*
X005159Y007412D01*
X005132Y007436D01*
X005103Y007458D01*
X005071Y007476D01*
X005039Y007492D01*
X005004Y007504D01*
X004969Y007513D01*
X004933Y007518D01*
X004897Y007520D01*
X004117Y007520D01*
M02*
