G75*
G70*
%OFA0B0*%
%FSLAX24Y24*%
%IPPOS*%
%LPD*%
%AMOC8*
5,1,8,0,0,1.08239X$1,22.5*
%
%ADD10C,0.0000*%
%ADD11R,0.0840X0.0300*%
%ADD12C,0.0640*%
%ADD13R,0.0394X0.0316*%
%ADD14R,0.1024X0.1182*%
%ADD15R,0.0620X0.0180*%
D10*
X000267Y000150D02*
X000267Y012146D01*
X017137Y012146D01*
X017137Y000150D01*
X000267Y000150D01*
D11*
X005057Y001650D03*
X005057Y002150D03*
X005057Y002650D03*
X005057Y003150D03*
X005057Y003650D03*
X005057Y004150D03*
X005057Y004650D03*
X007477Y004650D03*
X007477Y004150D03*
X007477Y003650D03*
X007477Y003150D03*
X007477Y002650D03*
X007477Y002150D03*
X007477Y001650D03*
D12*
X010467Y001150D02*
X011067Y001150D01*
X011067Y002150D02*
X010467Y002150D01*
X010467Y003150D02*
X011067Y003150D01*
X011067Y004150D02*
X010467Y004150D01*
X010467Y005150D02*
X011067Y005150D01*
X013967Y004150D02*
X014567Y004150D01*
X014567Y003150D02*
X013967Y003150D01*
X013967Y002150D02*
X014567Y002150D01*
X014267Y010350D02*
X014267Y010950D01*
X013267Y010950D02*
X013267Y010350D01*
X015267Y010350D02*
X015267Y010950D01*
X016267Y010950D02*
X016267Y010350D01*
X004267Y010350D02*
X004267Y010950D01*
X003267Y010950D02*
X003267Y010350D01*
X002267Y010350D02*
X002267Y010950D01*
X001267Y010950D02*
X001267Y010350D01*
D13*
X002767Y006906D03*
X002767Y006394D03*
X003767Y003906D03*
X003767Y003394D03*
D14*
X001767Y004430D03*
X001767Y001870D03*
D15*
X004117Y007270D03*
X004117Y007520D03*
X004117Y007780D03*
X004117Y008030D03*
X006417Y008030D03*
X006417Y007780D03*
X006417Y007520D03*
X006417Y007270D03*
M02*
